<svg width="183" height="111" viewBox="0 0 183 111" fill="none" xmlns="http://www.w3.org/2000/svg">
<g filter="url(#filter0_i_825_1947)">
<g clip-path="url(#clip0_825_1947)">
<rect width="183" height="111" rx="22" fill="black"/>
<path d="M17.2191 26.6472C-14.6412 35.2753 -33.5759 68.0908 -24.9893 99.7979C-16.4027 131.505 16.5037 150.281 48.364 141.653C80.2243 133.025 99.1591 100.21 90.5725 68.5025C81.9858 36.7954 49.0794 18.0191 17.2191 26.6472ZM45.6557 131.653C19.3361 138.78 -7.84705 123.27 -14.9404 97.0765C-22.0338 70.8835 -6.39225 43.7754 19.9274 36.6478C46.247 29.5201 73.4302 45.0308 80.5236 71.2238C87.6169 97.4169 71.9754 124.525 45.6557 131.653Z" fill="url(#paint0_linear_825_1947)"/>
<path d="M21.6202 42.8985C-1.23513 49.088 -14.8195 72.6308 -8.6598 95.3761C-2.50011 118.121 21.1079 131.592 43.9632 125.403C66.8185 119.213 80.4028 95.6704 74.2431 72.9251C68.0835 50.1798 44.4754 36.7091 21.6202 42.8985ZM33.6554 80.3579C39.7909 81.7284 47.4288 83.4362 49.3172 90.4093C51.0178 96.6888 48.1941 103.141 42.8477 106.348L43.3307 108.131C43.8913 110.202 42.6582 112.339 40.5779 112.902C38.4976 113.465 36.3545 112.243 35.7939 110.172L35.3109 108.389C29.0774 108.318 23.3832 104.173 21.6826 97.8931C21.122 95.8227 22.3551 93.6857 24.4354 93.1223C26.5158 92.5589 28.6588 93.7817 29.2194 95.852C30.153 99.2995 33.7284 101.34 37.1926 100.401C40.6567 99.4634 42.7141 95.8978 41.7805 92.4504C41.1153 89.9941 36.4461 88.9525 31.9279 87.9433C25.7925 86.5729 18.1545 84.8651 16.2661 77.8919C14.5655 71.6124 17.3893 65.1598 22.7357 61.9534L22.2527 60.1699C21.692 58.0996 22.9251 55.9625 25.0055 55.3991C27.0858 54.8358 29.2288 56.0586 29.7895 58.1289L30.2725 59.9124C36.506 59.9828 42.2002 64.1287 43.9007 70.4082C44.4614 72.4785 43.2283 74.6156 41.1479 75.179C39.0676 75.7423 36.9246 74.5195 36.3639 72.4492C35.4303 69.0017 31.8549 66.9616 28.3908 67.8997C24.9266 68.8379 22.8693 72.4034 23.8029 75.8509C24.4681 78.3071 29.1372 79.3487 33.6554 80.3579Z" fill="url(#paint1_linear_825_1947)"/>
<path d="M156.504 54.3777C129.255 47.3696 101.386 63.8354 94.3778 91.0825C87.37 118.33 103.837 146.199 131.085 153.207C158.334 160.215 186.204 143.749 193.211 116.502C200.219 89.2548 183.752 61.3858 156.504 54.3777ZM133.296 144.613C110.786 138.823 97.183 115.802 102.972 93.2928C108.761 70.7842 131.784 57.1822 154.293 62.9715C176.803 68.7609 190.406 91.7828 184.617 114.291C178.828 136.8 155.805 150.402 133.296 144.613Z" fill="url(#paint2_linear_825_1947)"/>
<path d="M152.912 68.343C133.365 63.3157 113.37 75.1288 108.343 94.6747C103.316 114.221 115.13 134.215 134.677 139.242C154.224 144.269 174.218 132.456 179.246 112.91C184.273 93.3644 172.459 73.3704 152.912 68.343ZM146.034 101.331C150.003 104.94 154.942 109.433 153.401 115.426C152.013 120.822 147.2 124.439 141.886 124.573L141.492 126.106C141.034 127.885 139.219 128.957 137.44 128.5C135.661 128.042 134.588 126.227 135.046 124.448L135.44 122.915C130.85 120.234 128.379 114.743 129.767 109.347C130.225 107.568 132.04 106.496 133.819 106.953C135.598 107.411 136.67 109.226 136.213 111.005C135.451 113.967 137.24 116.996 140.203 117.758C143.165 118.52 146.194 116.73 146.956 113.768C147.498 111.657 144.478 108.912 141.555 106.254C137.586 102.645 132.646 98.1516 134.188 92.1593C135.575 86.7631 140.389 83.1461 145.703 83.0117L146.097 81.4791C146.555 79.7 148.37 78.6277 150.149 79.0853C151.928 79.5429 153.001 81.3578 152.543 83.1369L152.149 84.6696C156.738 87.351 159.21 92.8417 157.822 98.238C157.364 100.017 155.549 101.089 153.77 100.632C151.991 100.174 150.919 98.3592 151.376 96.5801C152.138 93.6176 150.349 90.5895 147.386 89.8275C144.423 89.0655 141.395 90.8546 140.633 93.8172C140.09 95.9279 143.111 98.6732 146.034 101.331Z" fill="url(#paint3_linear_825_1947)"/>
</g>
<rect x="0.75" y="0.75" width="181.5" height="109.5" rx="21.25" stroke="url(#paint4_linear_825_1947)" stroke-opacity="0.3" stroke-width="1.5"/>
</g>
<defs>
<filter id="filter0_i_825_1947" x="-40" y="-40" width="263" height="191" filterUnits="userSpaceOnUse" color-interpolation-filters="sRGB">
<feFlood flood-opacity="0" result="BackgroundImageFix"/>
<feBlend mode="normal" in="SourceGraphic" in2="BackgroundImageFix" result="shape"/>
<feColorMatrix in="SourceAlpha" type="matrix" values="0 0 0 0 0 0 0 0 0 0 0 0 0 0 0 0 0 0 127 0" result="hardAlpha"/>
<feMorphology radius="3" operator="dilate" in="SourceAlpha" result="effect1_innerShadow_825_1947"/>
<feOffset dx="4" dy="-4"/>
<feGaussianBlur stdDeviation="5.5"/>
<feComposite in2="hardAlpha" operator="arithmetic" k2="-1" k3="1"/>
<feColorMatrix type="matrix" values="0 0 0 0 0.923077 0 0 0 0 0.923077 0 0 0 0 0.923077 0 0 0 0.41 0"/>
<feBlend mode="normal" in2="shape" result="effect1_innerShadow_825_1947"/>
</filter>
<linearGradient id="paint0_linear_825_1947" x1="17.2191" y1="26.6472" x2="34.6972" y2="118.296" gradientUnits="userSpaceOnUse">
<stop offset="0.144231" stop-color="white"/>
<stop offset="1" stop-opacity="0"/>
</linearGradient>
<linearGradient id="paint1_linear_825_1947" x1="17.2191" y1="26.6472" x2="34.6972" y2="118.296" gradientUnits="userSpaceOnUse">
<stop offset="0.144231" stop-color="white"/>
<stop offset="1" stop-opacity="0"/>
</linearGradient>
<linearGradient id="paint2_linear_825_1947" x1="97.3242" y1="44.8527" x2="187.903" y2="96.4114" gradientUnits="userSpaceOnUse">
<stop offset="0.144231" stop-color="white"/>
<stop offset="1" stop-opacity="0"/>
</linearGradient>
<linearGradient id="paint3_linear_825_1947" x1="97.3242" y1="44.8527" x2="187.903" y2="96.4114" gradientUnits="userSpaceOnUse">
<stop offset="0.144231" stop-color="white"/>
<stop offset="1" stop-opacity="0"/>
</linearGradient>
<linearGradient id="paint4_linear_825_1947" x1="91.5" y1="0" x2="91.5" y2="111" gradientUnits="userSpaceOnUse">
<stop stop-color="#252222"/>
<stop offset="1" stop-color="#E3E3E3"/>
</linearGradient>
<clipPath id="clip0_825_1947">
<rect width="183" height="111" rx="22" fill="white"/>
</clipPath>
</defs>
</svg>
