<svg width="512" height="368" viewBox="0 0 512 368" fill="none" xmlns="http://www.w3.org/2000/svg">
<path d="M4 116V112M4 112V108M4 112H0M4 112H8M22 116V112M22 112V108M22 112H18M22 112H26M40 116V112M40 112V108M40 112H36M40 112H44M58 116V112M58 112V108M58 112H54M58 112H62M76 116V112M76 112V108M76 112H72M76 112H80M94 116V112M94 112V108M94 112H90M94 112H98M112 116V112M112 112V108M112 112H108M112 112H116M130 116V112M130 112V108M130 112H126M130 112H134M148 116V112M148 112V108M148 112H144M148 112H152M166 116V112M166 112V108M166 112H162M166 112H170M184 116V112M184 112V108M184 112H180M184 112H188M202 116V112M202 112V108M202 112H198M202 112H206M220 116V112M220 112V108M220 112H216M220 112H224M238 116V112M238 112V108M238 112H234M238 112H242M256 116V112M256 112V108M256 112H252M256 112H260M274 116V112M274 112V108M274 112H270M274 112H278M4 98V94M4 94V90M4 94H0M4 94H8M22 98V94M22 94V90M22 94H18M22 94H26M40 98V94M40 94V90M40 94H36M40 94H44M58 98V94M58 94V90M58 94H54M58 94H62M4 80V76M4 76V72M4 76H0M4 76H8M22 80V76M22 76V72M22 76H18M22 76H26M40 80V76M40 76V72M40 76H36M40 76H44M58 80V76M58 76V72M58 76H54M58 76H62M76 98V94M76 94V90M76 94H72M76 94H80M94 98V94M94 94V90M94 94H90M94 94H98M112 98V94M112 94V90M112 94H108M112 94H116M130 98V94M130 94V90M130 94H126M130 94H134M76 80V76M76 76V72M76 76H72M76 76H80M94 80V76M94 76V72M94 76H90M94 76H98M112 80V76M112 76V72M112 76H108M112 76H116M130 80V76M130 76V72M130 76H126M130 76H134M76 62V58M76 58V54M76 58H72M76 58H80M94 62V58M94 58V54M94 58H90M94 58H98M112 62V58M112 58V54M112 58H108M112 58H116M130 62V58M130 58V54M130 58H126M130 58H134M148 98V94M148 94V90M148 94H144M148 94H152M166 98V94M166 94V90M166 94H162M166 94H170M184 98V94M184 94V90M184 94H180M184 94H188M202 98V94M202 94V90M202 94H198M202 94H206M148 80V76M148 76V72M148 76H144M148 76H152M166 80V76M166 76V72M166 76H162M166 76H170M184 80V76M184 76V72M184 76H180M184 76H188M202 80V76M202 76V72M202 76H198M202 76H206M148 62V58M148 58V54M148 58H144M148 58H152M166 62V58M166 58V54M166 58H162M166 58H170M184 62V58M184 58V54M184 58H180M184 58H188M202 62V58M202 58V54M202 58H198M202 58H206M4 62V58M4 58V54M4 58H0M4 58H8M22 62V58M22 58V54M22 58H18M22 58H26M40 62V58M40 58V54M40 58H36M40 58H44M58 62V58M58 58V54M58 58H54M58 58H62M4 44V40M4 40V36M4 40H0M4 40H8M22 44V40M22 40V36M22 40H18M22 40H26M40 44V40M40 40V36M40 40H36M40 40H44M58 44V40M58 40V36M58 40H54M58 40H62M4 26V22M4 22V18M4 22H0M4 22H8M22 26V22M22 22V18M22 22H18M22 22H26M40 26V22M40 22V18M40 22H36M40 22H44M58 26V22M58 22V18M58 22H54M58 22H62M220 98V94M220 94V90M220 94H216M220 94H224M238 98V94M238 94V90M238 94H234M238 94H242M256 98V94M256 94V90M256 94H252M256 94H260M274 98V94M274 94V90M274 94H270M274 94H278M220 80V76M220 76V72M220 76H216M220 76H224M238 80V76M238 76V72M238 76H234M238 76H242M256 80V76M256 76V72M256 76H252M256 76H260M274 80V76M274 76V72M274 76H270M274 76H278M220 62V58M220 58V54M220 58H216M220 58H224M238 62V58M238 58V54M238 58H234M238 58H242M256 62V58M256 58V54M256 58H252M256 58H260M274 62V58M274 58V54M274 58H270M274 58H278M76 44V40M76 40V36M76 40H72M76 40H80M94 44V40M94 40V36M94 40H90M94 40H98M112 44V40M112 40V36M112 40H108M112 40H116M130 44V40M130 40V36M130 40H126M130 40H134M76 26V22M76 22V18M76 22H72M76 22H80M94 26V22M94 22V18M94 22H90M94 22H98M112 26V22M112 22V18M112 22H108M112 22H116M130 26V22M130 22V18M130 22H126M130 22H134M76 8V4M76 4V0M76 4H72M76 4H80M94 8V4M94 4V0M94 4H90M94 4H98M112 8V4M112 4V0M112 4H108M112 4H116M130 8V4M130 4V0M130 4H126M130 4H134M148 44V40M148 40V36M148 40H144M148 40H152M166 44V40M166 40V36M166 40H162M166 40H170M184 44V40M184 40V36M184 40H180M184 40H188M202 44V40M202 40V36M202 40H198M202 40H206M148 26V22M148 22V18M148 22H144M148 22H152M166 26V22M166 22V18M166 22H162M166 22H170M184 26V22M184 22V18M184 22H180M184 22H188M202 26V22M202 22V18M202 22H198M202 22H206M148 8V4M148 4V0M148 4H144M148 4H152M166 8V4M166 4V0M166 4H162M166 4H170M184 8V4M184 4V0M184 4H180M184 4H188M202 8V4M202 4V0M202 4H198M202 4H206M220 44V40M220 40V36M220 40H216M220 40H224M238 44V40M238 40V36M238 40H234M238 40H242M256 44V40M256 40V36M256 40H252M256 40H260M274 44V40M274 40V36M274 40H270M274 40H278M220 26V22M220 22V18M220 22H216M220 22H224M238 26V22M238 22V18M238 22H234M238 22H242M256 26V22M256 22V18M256 22H252M256 22H260M274 26V22M274 22V18M274 22H270M274 22H278M220 8V4M220 4V0M220 4H216M220 4H224M238 8V4M238 4V0M238 4H234M238 4H242M256 8V4M256 4V0M256 4H252M256 4H260M274 8V4M274 4V0M274 4H270M274 4H278M4 8V4M4 4V0M4 4H0M4 4H8M22 8V4M22 4V0M22 4H18M22 4H26M40 8V4M40 4V0M40 4H36M40 4H44M58 8V4M58 4V0M58 4H54M58 4H62M292 116V112M292 112V108M292 112H288M292 112H296M310 116V112M310 112V108M310 112H306M310 112H314M328 116V112M328 112V108M328 112H324M328 112H332M346 116V112M346 112V108M346 112H342M346 112H350M364 116V112M364 112V108M364 112H360M364 112H368M382 116V112M382 112V108M382 112H378M382 112H386M400 116V112M400 112V108M400 112H396M400 112H404M418 116V112M418 112V108M418 112H414M418 112H422M436 116V112M436 112V108M436 112H432M436 112H440M454 116V112M454 112V108M454 112H450M454 112H458M472 116V112M472 112V108M472 112H468M472 112H476M490 116V112M490 112V108M490 112H486M490 112H494M508 116V112M508 112V108M508 112H504M508 112H512M292 98V94M292 94V90M292 94H288M292 94H296M310 98V94M310 94V90M310 94H306M310 94H314M328 98V94M328 94V90M328 94H324M328 94H332M346 98V94M346 94V90M346 94H342M346 94H350M292 80V76M292 76V72M292 76H288M292 76H296M310 80V76M310 76V72M310 76H306M310 76H314M328 80V76M328 76V72M328 76H324M328 76H332M346 80V76M346 76V72M346 76H342M346 76H350M364 98V94M364 94V90M364 94H360M364 94H368M382 98V94M382 94V90M382 94H378M382 94H386M400 98V94M400 94V90M400 94H396M400 94H404M418 98V94M418 94V90M418 94H414M418 94H422M364 80V76M364 76V72M364 76H360M364 76H368M382 80V76M382 76V72M382 76H378M382 76H386M400 80V76M400 76V72M400 76H396M400 76H404M418 80V76M418 76V72M418 76H414M418 76H422M364 62V58M364 58V54M364 58H360M364 58H368M382 62V58M382 58V54M382 58H378M382 58H386M400 62V58M400 58V54M400 58H396M400 58H404M418 62V58M418 58V54M418 58H414M418 58H422M436 98V94M436 94V90M436 94H432M436 94H440M454 98V94M454 94V90M454 94H450M454 94H458M472 98V94M472 94V90M472 94H468M472 94H476M490 98V94M490 94V90M490 94H486M490 94H494M436 80V76M436 76V72M436 76H432M436 76H440M454 80V76M454 76V72M454 76H450M454 76H458M472 80V76M472 76V72M472 76H468M472 76H476M490 80V76M490 76V72M490 76H486M490 76H494M436 62V58M436 58V54M436 58H432M436 58H440M454 62V58M454 58V54M454 58H450M454 58H458M472 62V58M472 58V54M472 58H468M472 58H476M490 62V58M490 58V54M490 58H486M490 58H494M292 62V58M292 58V54M292 58H288M292 58H296M310 62V58M310 58V54M310 58H306M310 58H314M328 62V58M328 58V54M328 58H324M328 58H332M346 62V58M346 58V54M346 58H342M346 58H350M292 44V40M292 40V36M292 40H288M292 40H296M310 44V40M310 40V36M310 40H306M310 40H314M328 44V40M328 40V36M328 40H324M328 40H332M346 44V40M346 40V36M346 40H342M346 40H350M292 26V22M292 22V18M292 22H288M292 22H296M310 26V22M310 22V18M310 22H306M310 22H314M328 26V22M328 22V18M328 22H324M328 22H332M346 26V22M346 22V18M346 22H342M346 22H350M508 98V94M508 94V90M508 94H504M508 94H512M508 80V76M508 76V72M508 76H504M508 76H512M508 62V58M508 58V54M508 58H504M508 58H512M364 44V40M364 40V36M364 40H360M364 40H368M382 44V40M382 40V36M382 40H378M382 40H386M400 44V40M400 40V36M400 40H396M400 40H404M418 44V40M418 40V36M418 40H414M418 40H422M364 26V22M364 22V18M364 22H360M364 22H368M382 26V22M382 22V18M382 22H378M382 22H386M400 26V22M400 22V18M400 22H396M400 22H404M418 26V22M418 22V18M418 22H414M418 22H422M364 8V4M364 4V0M364 4H360M364 4H368M382 8V4M382 4V0M382 4H378M382 4H386M400 8V4M400 4V0M400 4H396M400 4H404M418 8V4M418 4V0M418 4H414M418 4H422M436 44V40M436 40V36M436 40H432M436 40H440M454 44V40M454 40V36M454 40H450M454 40H458M472 44V40M472 40V36M472 40H468M472 40H476M490 44V40M490 40V36M490 40H486M490 40H494M436 26V22M436 22V18M436 22H432M436 22H440M454 26V22M454 22V18M454 22H450M454 22H458M472 26V22M472 22V18M472 22H468M472 22H476M490 26V22M490 22V18M490 22H486M490 22H494M436 8V4M436 4V0M436 4H432M436 4H440M454 8V4M454 4V0M454 4H450M454 4H458M472 8V4M472 4V0M472 4H468M472 4H476M490 8V4M490 4V0M490 4H486M490 4H494M508 44V40M508 40V36M508 40H504M508 40H512M508 26V22M508 22V18M508 22H504M508 22H512M508 8V4M508 4V0M508 4H504M508 4H512M292 8V4M292 4V0M292 4H288M292 4H296M310 8V4M310 4V0M310 4H306M310 4H314M328 8V4M328 4V0M328 4H324M328 4H332M346 8V4M346 4V0M346 4H342M346 4H350M4 242V238M4 238V234M4 238H0M4 238H8M22 242V238M22 238V234M22 238H18M22 238H26M40 242V238M40 238V234M40 238H36M40 238H44M58 242V238M58 238V234M58 238H54M58 238H62M76 242V238M76 238V234M76 238H72M76 238H80M94 242V238M94 238V234M94 238H90M94 238H98M112 242V238M112 238V234M112 238H108M112 238H116M130 242V238M130 238V234M130 238H126M130 238H134M148 242V238M148 238V234M148 238H144M148 238H152M166 242V238M166 238V234M166 238H162M166 238H170M184 242V238M184 238V234M184 238H180M184 238H188M202 242V238M202 238V234M202 238H198M202 238H206M220 242V238M220 238V234M220 238H216M220 238H224M238 242V238M238 238V234M238 238H234M238 238H242M256 242V238M256 238V234M256 238H252M256 238H260M274 242V238M274 238V234M274 238H270M274 238H278M4 224V220M4 220V216M4 220H0M4 220H8M22 224V220M22 220V216M22 220H18M22 220H26M40 224V220M40 220V216M40 220H36M40 220H44M58 224V220M58 220V216M58 220H54M58 220H62M4 206V202M4 202V198M4 202H0M4 202H8M22 206V202M22 202V198M22 202H18M22 202H26M40 206V202M40 202V198M40 202H36M40 202H44M58 206V202M58 202V198M58 202H54M58 202H62M76 224V220M76 220V216M76 220H72M76 220H80M94 224V220M94 220V216M94 220H90M94 220H98M112 224V220M112 220V216M112 220H108M112 220H116M130 224V220M130 220V216M130 220H126M130 220H134M76 206V202M76 202V198M76 202H72M76 202H80M94 206V202M94 202V198M94 202H90M94 202H98M112 206V202M112 202V198M112 202H108M112 202H116M130 206V202M130 202V198M130 202H126M130 202H134M76 188V184M76 184V180M76 184H72M76 184H80M94 188V184M94 184V180M94 184H90M94 184H98M112 188V184M112 184V180M112 184H108M112 184H116M130 188V184M130 184V180M130 184H126M130 184H134M148 224V220M148 220V216M148 220H144M148 220H152M166 224V220M166 220V216M166 220H162M166 220H170M184 224V220M184 220V216M184 220H180M184 220H188M202 224V220M202 220V216M202 220H198M202 220H206M148 206V202M148 202V198M148 202H144M148 202H152M166 206V202M166 202V198M166 202H162M166 202H170M184 206V202M184 202V198M184 202H180M184 202H188M202 206V202M202 202V198M202 202H198M202 202H206M148 188V184M148 184V180M148 184H144M148 184H152M166 188V184M166 184V180M166 184H162M166 184H170M184 188V184M184 184V180M184 184H180M184 184H188M202 188V184M202 184V180M202 184H198M202 184H206M4 188V184M4 184V180M4 184H0M4 184H8M22 188V184M22 184V180M22 184H18M22 184H26M40 188V184M40 184V180M40 184H36M40 184H44M58 188V184M58 184V180M58 184H54M58 184H62M4 170V166M4 166V162M4 166H0M4 166H8M22 170V166M22 166V162M22 166H18M22 166H26M40 170V166M40 166V162M40 166H36M40 166H44M58 170V166M58 166V162M58 166H54M58 166H62M4 152V148M4 148V144M4 148H0M4 148H8M22 152V148M22 148V144M22 148H18M22 148H26M40 152V148M40 148V144M40 148H36M40 148H44M58 152V148M58 148V144M58 148H54M58 148H62M220 224V220M220 220V216M220 220H216M220 220H224M238 224V220M238 220V216M238 220H234M238 220H242M256 224V220M256 220V216M256 220H252M256 220H260M274 224V220M274 220V216M274 220H270M274 220H278M220 206V202M220 202V198M220 202H216M220 202H224M238 206V202M238 202V198M238 202H234M238 202H242M256 206V202M256 202V198M256 202H252M256 202H260M274 206V202M274 202V198M274 202H270M274 202H278M220 188V184M220 184V180M220 184H216M220 184H224M238 188V184M238 184V180M238 184H234M238 184H242M256 188V184M256 184V180M256 184H252M256 184H260M274 188V184M274 184V180M274 184H270M274 184H278M76 170V166M76 166V162M76 166H72M76 166H80M94 170V166M94 166V162M94 166H90M94 166H98M112 170V166M112 166V162M112 166H108M112 166H116M130 170V166M130 166V162M130 166H126M130 166H134M76 152V148M76 148V144M76 148H72M76 148H80M94 152V148M94 148V144M94 148H90M94 148H98M112 152V148M112 148V144M112 148H108M112 148H116M130 152V148M130 148V144M130 148H126M130 148H134M76 134V130M76 130V126M76 130H72M76 130H80M94 134V130M94 130V126M94 130H90M94 130H98M112 134V130M112 130V126M112 130H108M112 130H116M130 134V130M130 130V126M130 130H126M130 130H134M148 170V166M148 166V162M148 166H144M148 166H152M166 170V166M166 166V162M166 166H162M166 166H170M184 170V166M184 166V162M184 166H180M184 166H188M202 170V166M202 166V162M202 166H198M202 166H206M148 152V148M148 148V144M148 148H144M148 148H152M166 152V148M166 148V144M166 148H162M166 148H170M184 152V148M184 148V144M184 148H180M184 148H188M202 152V148M202 148V144M202 148H198M202 148H206M148 134V130M148 130V126M148 130H144M148 130H152M166 134V130M166 130V126M166 130H162M166 130H170M184 134V130M184 130V126M184 130H180M184 130H188M202 134V130M202 130V126M202 130H198M202 130H206M220 170V166M220 166V162M220 166H216M220 166H224M238 170V166M238 166V162M238 166H234M238 166H242M256 170V166M256 166V162M256 166H252M256 166H260M274 170V166M274 166V162M274 166H270M274 166H278M220 152V148M220 148V144M220 148H216M220 148H224M238 152V148M238 148V144M238 148H234M238 148H242M256 152V148M256 148V144M256 148H252M256 148H260M274 152V148M274 148V144M274 148H270M274 148H278M220 134V130M220 130V126M220 130H216M220 130H224M238 134V130M238 130V126M238 130H234M238 130H242M256 134V130M256 130V126M256 130H252M256 130H260M274 134V130M274 130V126M274 130H270M274 130H278M4 134V130M4 130V126M4 130H0M4 130H8M22 134V130M22 130V126M22 130H18M22 130H26M40 134V130M40 130V126M40 130H36M40 130H44M58 134V130M58 130V126M58 130H54M58 130H62M292 242V238M292 238V234M292 238H288M292 238H296M310 242V238M310 238V234M310 238H306M310 238H314M328 242V238M328 238V234M328 238H324M328 238H332M346 242V238M346 238V234M346 238H342M346 238H350M364 242V238M364 238V234M364 238H360M364 238H368M382 242V238M382 238V234M382 238H378M382 238H386M400 242V238M400 238V234M400 238H396M400 238H404M418 242V238M418 238V234M418 238H414M418 238H422M436 242V238M436 238V234M436 238H432M436 238H440M454 242V238M454 238V234M454 238H450M454 238H458M472 242V238M472 238V234M472 238H468M472 238H476M490 242V238M490 238V234M490 238H486M490 238H494M508 242V238M508 238V234M508 238H504M508 238H512M292 224V220M292 220V216M292 220H288M292 220H296M310 224V220M310 220V216M310 220H306M310 220H314M328 224V220M328 220V216M328 220H324M328 220H332M346 224V220M346 220V216M346 220H342M346 220H350M292 206V202M292 202V198M292 202H288M292 202H296M310 206V202M310 202V198M310 202H306M310 202H314M328 206V202M328 202V198M328 202H324M328 202H332M346 206V202M346 202V198M346 202H342M346 202H350M364 224V220M364 220V216M364 220H360M364 220H368M382 224V220M382 220V216M382 220H378M382 220H386M400 224V220M400 220V216M400 220H396M400 220H404M418 224V220M418 220V216M418 220H414M418 220H422M364 206V202M364 202V198M364 202H360M364 202H368M382 206V202M382 202V198M382 202H378M382 202H386M400 206V202M400 202V198M400 202H396M400 202H404M418 206V202M418 202V198M418 202H414M418 202H422M364 188V184M364 184V180M364 184H360M364 184H368M382 188V184M382 184V180M382 184H378M382 184H386M400 188V184M400 184V180M400 184H396M400 184H404M418 188V184M418 184V180M418 184H414M418 184H422M436 224V220M436 220V216M436 220H432M436 220H440M454 224V220M454 220V216M454 220H450M454 220H458M472 224V220M472 220V216M472 220H468M472 220H476M490 224V220M490 220V216M490 220H486M490 220H494M436 206V202M436 202V198M436 202H432M436 202H440M454 206V202M454 202V198M454 202H450M454 202H458M472 206V202M472 202V198M472 202H468M472 202H476M490 206V202M490 202V198M490 202H486M490 202H494M436 188V184M436 184V180M436 184H432M436 184H440M454 188V184M454 184V180M454 184H450M454 184H458M472 188V184M472 184V180M472 184H468M472 184H476M490 188V184M490 184V180M490 184H486M490 184H494M292 188V184M292 184V180M292 184H288M292 184H296M310 188V184M310 184V180M310 184H306M310 184H314M328 188V184M328 184V180M328 184H324M328 184H332M346 188V184M346 184V180M346 184H342M346 184H350M292 170V166M292 166V162M292 166H288M292 166H296M310 170V166M310 166V162M310 166H306M310 166H314M328 170V166M328 166V162M328 166H324M328 166H332M346 170V166M346 166V162M346 166H342M346 166H350M292 152V148M292 148V144M292 148H288M292 148H296M310 152V148M310 148V144M310 148H306M310 148H314M328 152V148M328 148V144M328 148H324M328 148H332M346 152V148M346 148V144M346 148H342M346 148H350M508 224V220M508 220V216M508 220H504M508 220H512M508 206V202M508 202V198M508 202H504M508 202H512M508 188V184M508 184V180M508 184H504M508 184H512M364 170V166M364 166V162M364 166H360M364 166H368M382 170V166M382 166V162M382 166H378M382 166H386M400 170V166M400 166V162M400 166H396M400 166H404M418 170V166M418 166V162M418 166H414M418 166H422M364 152V148M364 148V144M364 148H360M364 148H368M382 152V148M382 148V144M382 148H378M382 148H386M400 152V148M400 148V144M400 148H396M400 148H404M418 152V148M418 148V144M418 148H414M418 148H422M364 134V130M364 130V126M364 130H360M364 130H368M382 134V130M382 130V126M382 130H378M382 130H386M400 134V130M400 130V126M400 130H396M400 130H404M418 134V130M418 130V126M418 130H414M418 130H422M436 170V166M436 166V162M436 166H432M436 166H440M454 170V166M454 166V162M454 166H450M454 166H458M472 170V166M472 166V162M472 166H468M472 166H476M490 170V166M490 166V162M490 166H486M490 166H494M436 152V148M436 148V144M436 148H432M436 148H440M454 152V148M454 148V144M454 148H450M454 148H458M472 152V148M472 148V144M472 148H468M472 148H476M490 152V148M490 148V144M490 148H486M490 148H494M436 134V130M436 130V126M436 130H432M436 130H440M454 134V130M454 130V126M454 130H450M454 130H458M472 134V130M472 130V126M472 130H468M472 130H476M490 134V130M490 130V126M490 130H486M490 130H494M508 170V166M508 166V162M508 166H504M508 166H512M508 152V148M508 148V144M508 148H504M508 148H512M508 134V130M508 130V126M508 130H504M508 130H512M292 134V130M292 130V126M292 130H288M292 130H296M310 134V130M310 130V126M310 130H306M310 130H314M328 134V130M328 130V126M328 130H324M328 130H332M346 134V130M346 130V126M346 130H342M346 130H350M4 368V364M4 364V360M4 364H0M4 364H8M22 368V364M22 364V360M22 364H18M22 364H26M40 368V364M40 364V360M40 364H36M40 364H44M58 368V364M58 364V360M58 364H54M58 364H62M76 368V364M76 364V360M76 364H72M76 364H80M94 368V364M94 364V360M94 364H90M94 364H98M112 368V364M112 364V360M112 364H108M112 364H116M130 368V364M130 364V360M130 364H126M130 364H134M148 368V364M148 364V360M148 364H144M148 364H152M166 368V364M166 364V360M166 364H162M166 364H170M184 368V364M184 364V360M184 364H180M184 364H188M202 368V364M202 364V360M202 364H198M202 364H206M220 368V364M220 364V360M220 364H216M220 364H224M238 368V364M238 364V360M238 364H234M238 364H242M256 368V364M256 364V360M256 364H252M256 364H260M274 368V364M274 364V360M274 364H270M274 364H278M4 350V346M4 346V342M4 346H0M4 346H8M22 350V346M22 346V342M22 346H18M22 346H26M40 350V346M40 346V342M40 346H36M40 346H44M58 350V346M58 346V342M58 346H54M58 346H62M4 332V328M4 328V324M4 328H0M4 328H8M22 332V328M22 328V324M22 328H18M22 328H26M40 332V328M40 328V324M40 328H36M40 328H44M58 332V328M58 328V324M58 328H54M58 328H62M76 350V346M76 346V342M76 346H72M76 346H80M94 350V346M94 346V342M94 346H90M94 346H98M112 350V346M112 346V342M112 346H108M112 346H116M130 350V346M130 346V342M130 346H126M130 346H134M76 332V328M76 328V324M76 328H72M76 328H80M94 332V328M94 328V324M94 328H90M94 328H98M112 332V328M112 328V324M112 328H108M112 328H116M130 332V328M130 328V324M130 328H126M130 328H134M76 314V310M76 310V306M76 310H72M76 310H80M94 314V310M94 310V306M94 310H90M94 310H98M112 314V310M112 310V306M112 310H108M112 310H116M130 314V310M130 310V306M130 310H126M130 310H134M148 350V346M148 346V342M148 346H144M148 346H152M166 350V346M166 346V342M166 346H162M166 346H170M184 350V346M184 346V342M184 346H180M184 346H188M202 350V346M202 346V342M202 346H198M202 346H206M148 332V328M148 328V324M148 328H144M148 328H152M166 332V328M166 328V324M166 328H162M166 328H170M184 332V328M184 328V324M184 328H180M184 328H188M202 332V328M202 328V324M202 328H198M202 328H206M148 314V310M148 310V306M148 310H144M148 310H152M166 314V310M166 310V306M166 310H162M166 310H170M184 314V310M184 310V306M184 310H180M184 310H188M202 314V310M202 310V306M202 310H198M202 310H206M4 314V310M4 310V306M4 310H0M4 310H8M22 314V310M22 310V306M22 310H18M22 310H26M40 314V310M40 310V306M40 310H36M40 310H44M58 314V310M58 310V306M58 310H54M58 310H62M4 296V292M4 292V288M4 292H0M4 292H8M22 296V292M22 292V288M22 292H18M22 292H26M40 296V292M40 292V288M40 292H36M40 292H44M58 296V292M58 292V288M58 292H54M58 292H62M4 278V274M4 274V270M4 274H0M4 274H8M22 278V274M22 274V270M22 274H18M22 274H26M40 278V274M40 274V270M40 274H36M40 274H44M58 278V274M58 274V270M58 274H54M58 274H62M220 350V346M220 346V342M220 346H216M220 346H224M238 350V346M238 346V342M238 346H234M238 346H242M256 350V346M256 346V342M256 346H252M256 346H260M274 350V346M274 346V342M274 346H270M274 346H278M220 332V328M220 328V324M220 328H216M220 328H224M238 332V328M238 328V324M238 328H234M238 328H242M256 332V328M256 328V324M256 328H252M256 328H260M274 332V328M274 328V324M274 328H270M274 328H278M220 314V310M220 310V306M220 310H216M220 310H224M238 314V310M238 310V306M238 310H234M238 310H242M256 314V310M256 310V306M256 310H252M256 310H260M274 314V310M274 310V306M274 310H270M274 310H278M76 296V292M76 292V288M76 292H72M76 292H80M94 296V292M94 292V288M94 292H90M94 292H98M112 296V292M112 292V288M112 292H108M112 292H116M130 296V292M130 292V288M130 292H126M130 292H134M76 278V274M76 274V270M76 274H72M76 274H80M94 278V274M94 274V270M94 274H90M94 274H98M112 278V274M112 274V270M112 274H108M112 274H116M130 278V274M130 274V270M130 274H126M130 274H134M76 260V256M76 256V252M76 256H72M76 256H80M94 260V256M94 256V252M94 256H90M94 256H98M112 260V256M112 256V252M112 256H108M112 256H116M130 260V256M130 256V252M130 256H126M130 256H134M148 296V292M148 292V288M148 292H144M148 292H152M166 296V292M166 292V288M166 292H162M166 292H170M184 296V292M184 292V288M184 292H180M184 292H188M202 296V292M202 292V288M202 292H198M202 292H206M148 278V274M148 274V270M148 274H144M148 274H152M166 278V274M166 274V270M166 274H162M166 274H170M184 278V274M184 274V270M184 274H180M184 274H188M202 278V274M202 274V270M202 274H198M202 274H206M148 260V256M148 256V252M148 256H144M148 256H152M166 260V256M166 256V252M166 256H162M166 256H170M184 260V256M184 256V252M184 256H180M184 256H188M202 260V256M202 256V252M202 256H198M202 256H206M220 296V292M220 292V288M220 292H216M220 292H224M238 296V292M238 292V288M238 292H234M238 292H242M256 296V292M256 292V288M256 292H252M256 292H260M274 296V292M274 292V288M274 292H270M274 292H278M220 278V274M220 274V270M220 274H216M220 274H224M238 278V274M238 274V270M238 274H234M238 274H242M256 278V274M256 274V270M256 274H252M256 274H260M274 278V274M274 274V270M274 274H270M274 274H278M220 260V256M220 256V252M220 256H216M220 256H224M238 260V256M238 256V252M238 256H234M238 256H242M256 260V256M256 256V252M256 256H252M256 256H260M274 260V256M274 256V252M274 256H270M274 256H278M4 260V256M4 256V252M4 256H0M4 256H8M22 260V256M22 256V252M22 256H18M22 256H26M40 260V256M40 256V252M40 256H36M40 256H44M58 260V256M58 256V252M58 256H54M58 256H62M292 368V364M292 364V360M292 364H288M292 364H296M310 368V364M310 364V360M310 364H306M310 364H314M328 368V364M328 364V360M328 364H324M328 364H332M346 368V364M346 364V360M346 364H342M346 364H350M364 368V364M364 364V360M364 364H360M364 364H368M382 368V364M382 364V360M382 364H378M382 364H386M400 368V364M400 364V360M400 364H396M400 364H404M418 368V364M418 364V360M418 364H414M418 364H422M436 368V364M436 364V360M436 364H432M436 364H440M454 368V364M454 364V360M454 364H450M454 364H458M472 368V364M472 364V360M472 364H468M472 364H476M490 368V364M490 364V360M490 364H486M490 364H494M508 368V364M508 364V360M508 364H504M508 364H512M292 350V346M292 346V342M292 346H288M292 346H296M310 350V346M310 346V342M310 346H306M310 346H314M328 350V346M328 346V342M328 346H324M328 346H332M346 350V346M346 346V342M346 346H342M346 346H350M292 332V328M292 328V324M292 328H288M292 328H296M310 332V328M310 328V324M310 328H306M310 328H314M328 332V328M328 328V324M328 328H324M328 328H332M346 332V328M346 328V324M346 328H342M346 328H350M364 350V346M364 346V342M364 346H360M364 346H368M382 350V346M382 346V342M382 346H378M382 346H386M400 350V346M400 346V342M400 346H396M400 346H404M418 350V346M418 346V342M418 346H414M418 346H422M364 332V328M364 328V324M364 328H360M364 328H368M382 332V328M382 328V324M382 328H378M382 328H386M400 332V328M400 328V324M400 328H396M400 328H404M418 332V328M418 328V324M418 328H414M418 328H422M364 314V310M364 310V306M364 310H360M364 310H368M382 314V310M382 310V306M382 310H378M382 310H386M400 314V310M400 310V306M400 310H396M400 310H404M418 314V310M418 310V306M418 310H414M418 310H422M436 350V346M436 346V342M436 346H432M436 346H440M454 350V346M454 346V342M454 346H450M454 346H458M472 350V346M472 346V342M472 346H468M472 346H476M490 350V346M490 346V342M490 346H486M490 346H494M436 332V328M436 328V324M436 328H432M436 328H440M454 332V328M454 328V324M454 328H450M454 328H458M472 332V328M472 328V324M472 328H468M472 328H476M490 332V328M490 328V324M490 328H486M490 328H494M436 314V310M436 310V306M436 310H432M436 310H440M454 314V310M454 310V306M454 310H450M454 310H458M472 314V310M472 310V306M472 310H468M472 310H476M490 314V310M490 310V306M490 310H486M490 310H494M292 314V310M292 310V306M292 310H288M292 310H296M310 314V310M310 310V306M310 310H306M310 310H314M328 314V310M328 310V306M328 310H324M328 310H332M346 314V310M346 310V306M346 310H342M346 310H350M292 296V292M292 292V288M292 292H288M292 292H296M310 296V292M310 292V288M310 292H306M310 292H314M328 296V292M328 292V288M328 292H324M328 292H332M346 296V292M346 292V288M346 292H342M346 292H350M292 278V274M292 274V270M292 274H288M292 274H296M310 278V274M310 274V270M310 274H306M310 274H314M328 278V274M328 274V270M328 274H324M328 274H332M346 278V274M346 274V270M346 274H342M346 274H350M508 350V346M508 346V342M508 346H504M508 346H512M508 332V328M508 328V324M508 328H504M508 328H512M508 314V310M508 310V306M508 310H504M508 310H512M364 296V292M364 292V288M364 292H360M364 292H368M382 296V292M382 292V288M382 292H378M382 292H386M400 296V292M400 292V288M400 292H396M400 292H404M418 296V292M418 292V288M418 292H414M418 292H422M364 278V274M364 274V270M364 274H360M364 274H368M382 278V274M382 274V270M382 274H378M382 274H386M400 278V274M400 274V270M400 274H396M400 274H404M418 278V274M418 274V270M418 274H414M418 274H422M364 260V256M364 256V252M364 256H360M364 256H368M382 260V256M382 256V252M382 256H378M382 256H386M400 260V256M400 256V252M400 256H396M400 256H404M418 260V256M418 256V252M418 256H414M418 256H422M436 296V292M436 292V288M436 292H432M436 292H440M454 296V292M454 292V288M454 292H450M454 292H458M472 296V292M472 292V288M472 292H468M472 292H476M490 296V292M490 292V288M490 292H486M490 292H494M436 278V274M436 274V270M436 274H432M436 274H440M454 278V274M454 274V270M454 274H450M454 274H458M472 278V274M472 274V270M472 274H468M472 274H476M490 278V274M490 274V270M490 274H486M490 274H494M436 260V256M436 256V252M436 256H432M436 256H440M454 260V256M454 256V252M454 256H450M454 256H458M472 260V256M472 256V252M472 256H468M472 256H476M490 260V256M490 256V252M490 256H486M490 256H494M508 296V292M508 292V288M508 292H504M508 292H512M508 278V274M508 274V270M508 274H504M508 274H512M508 260V256M508 256V252M508 256H504M508 256H512M292 260V256M292 256V252M292 256H288M292 256H296M310 260V256M310 256V252M310 256H306M310 256H314M328 260V256M328 256V252M328 256H324M328 256H332M346 260V256M346 256V252M346 256H342M346 256H350" stroke="url(#paint0_radial_634_2010)"/>
<defs>
<radialGradient id="paint0_radial_634_2010" cx="0" cy="0" r="1" gradientUnits="userSpaceOnUse" gradientTransform="translate(256 368) rotate(-90) scale(368 512)">
<stop offset="0.557692"/>
<stop offset="0.798077" stop-color="#272727"/>
<stop offset="1" stop-color="#636363"/>
</radialGradient>
</defs>
</svg>
