<svg width="314" height="76" viewBox="0 0 314 76" fill="none" xmlns="http://www.w3.org/2000/svg">
<path d="M62.8183 73H0.118262V1.74999H24.8183V51.15H62.8183V73ZM91.3368 73H66.6368V1.74999H91.3368V73ZM204.748 73H179.098V24.55H176.058V48.585C176.058 52.4483 175.457 56.0267 174.253 59.32C173.113 62.6133 171.403 65.4317 169.123 67.775C166.907 70.055 164.152 71.86 160.858 73.19C157.628 74.52 153.955 75.185 149.838 75.185C145.722 75.185 142.048 74.52 138.818 73.19C135.588 71.86 132.865 70.0233 130.648 67.68C128.432 65.3367 126.722 62.55 125.518 59.32C124.378 56.0267 123.808 52.4483 123.808 48.585V24.55H120.768V73H95.1183V27.4C95.1183 23.6633 95.7833 20.18 97.1133 16.95C98.4433 13.6567 100.312 10.8383 102.718 8.495C105.125 6.08833 107.975 4.22 111.268 2.89C114.625 1.49666 118.298 0.799995 122.288 0.799995C126.532 0.799995 130.268 1.49666 133.498 2.89C136.792 4.22 139.515 6.12 141.668 8.59C143.885 11.06 145.563 14.0367 146.703 17.52C147.843 21.0033 148.413 24.8033 148.413 28.92V51.435H151.453V28.92C151.453 24.8667 152.023 21.13 153.163 17.71C154.303 14.2267 155.982 11.25 158.198 8.77999C160.478 6.24666 163.297 4.28333 166.653 2.89C170.073 1.49666 174.032 0.799995 178.528 0.799995C182.328 0.799995 185.812 1.49666 188.978 2.89C192.208 4.22 194.995 6.08833 197.338 8.495C199.682 10.8383 201.487 13.6567 202.753 16.95C204.083 20.18 204.748 23.6633 204.748 27.4V73ZM233.28 73H208.58V1.74999H233.28V73ZM287.887 73H263.187V23.6H237.062V1.74999H313.917V23.6H287.887V73Z" fill="white"/>
</svg>
