<svg width="16" height="33" viewBox="0 0 16 33" fill="none" xmlns="http://www.w3.org/2000/svg">
<path d="M9.03777 30.6489C6.43243 29.4252 4.02627 30.0964 2.47707 32.2421C5.40795 33.6187 7.70335 33.1386 9.03777 30.6489Z" fill="#373737"/>
<path d="M1.80706 25.0718C-0.464844 26.8707 -0.42445 29.0721 1.6931 31.4161C3.55714 29.5025 3.68925 27.1552 1.80706 25.0718Z" fill="#373737"/>
<path d="M13.3904 25.0193C10.56 24.3671 8.37233 25.5212 7.3702 27.9353C10.5544 28.6689 12.6792 27.7242 13.3904 25.0193Z" fill="#373737"/>
<path d="M4.68764 21.4901C3.03258 23.8051 3.71914 25.9111 6.44425 27.6187C7.67354 25.2986 7.10998 23.0079 4.68764 21.4901Z" fill="#373737"/>
<path d="M15.9129 19.1023C13.0307 19.5091 11.4781 21.3567 11.5342 23.9461C14.7768 23.4885 16.3565 21.8569 15.9129 19.1023Z" fill="#373737"/>
<path d="M6.12294 18.7519C5.65361 21.5027 7.21756 23.147 10.4556 23.6313C10.536 21.0426 9.0011 19.1825 6.12294 18.7519Z" fill="#373737"/>
<path d="M5.73874 13.7298C5.73874 16.5155 7.56057 17.9084 10.8398 17.9084C10.483 15.3401 8.65364 13.7298 5.73874 13.7298Z" fill="#373737"/>
<path d="M15.6109 11.9389C12.8912 12.9203 11.8028 15.0386 12.4564 17.5551C15.5162 16.451 16.681 14.5383 15.6109 11.9389Z" fill="#373737"/>
<path d="M10.8398 12.2462C9.50423 9.9781 7.17255 9.10621 4.45973 10.1044C5.54826 12.6969 7.78794 13.3691 10.8398 12.2462Z" fill="#373737"/>
<path d="M12.5298 4.90966C10.3564 6.72807 10.1384 9.07028 11.7004 11.2079C14.1456 9.1622 14.5127 6.98681 12.5298 4.90966Z" fill="#373737"/>
<path d="M7.65166 7.87457C6.05626 5.75873 3.6356 5.13369 1.05733 6.40669C2.44547 8.8706 4.75112 9.30668 7.65166 7.87457Z" fill="#373737"/>
<path d="M8.24695 0.596947C5.94404 2.36096 5.94627 4.56348 8.02278 6.93951C9.92014 5.05462 10.0928 2.70901 8.24695 0.596947Z" fill="#373737"/>
<path d="M0 0C0 2.78575 1.82182 4.17863 5.1011 4.17863C4.7443 1.6103 2.9149 1.35212e-05 0 0Z" fill="#373737"/>
</svg>
