<svg width="16" height="33" viewBox="0 0 16 33" fill="none" xmlns="http://www.w3.org/2000/svg">
<path d="M6.96223 30.6489C9.56757 29.4252 11.9737 30.0964 13.5229 32.2421C10.5921 33.6187 8.29665 33.1386 6.96223 30.6489Z" fill="#373737"/>
<path d="M14.1929 25.0718C16.4648 26.8707 16.4244 29.0721 14.3069 31.4161C12.4429 29.5025 12.3107 27.1552 14.1929 25.0718Z" fill="#373737"/>
<path d="M2.6096 25.0193C5.44002 24.3671 7.62767 25.5212 8.6298 27.9353C5.44559 28.6689 3.32078 27.7242 2.6096 25.0193Z" fill="#373737"/>
<path d="M11.3124 21.4901C12.9674 23.8051 12.2809 25.9111 9.55575 27.6187C8.32646 25.2986 8.89002 23.0079 11.3124 21.4901Z" fill="#373737"/>
<path d="M0.0870682 19.1023C2.96925 19.5091 4.52195 21.3567 4.46585 23.9461C1.2232 23.4885 -0.356469 21.8569 0.0870682 19.1023Z" fill="#373737"/>
<path d="M9.87706 18.7519C10.3464 21.5027 8.78244 23.147 5.54435 23.6313C5.46397 21.0426 6.9989 19.1825 9.87706 18.7519Z" fill="#373737"/>
<path d="M10.2613 13.7298C10.2613 16.5155 8.43943 17.9084 5.16015 17.9084C5.51696 15.3401 7.34636 13.7298 10.2613 13.7298Z" fill="#373737"/>
<path d="M0.389075 11.9389C3.10882 12.9203 4.19722 15.0386 3.54364 17.5551C0.483824 16.451 -0.681031 14.5383 0.389075 11.9389Z" fill="#373737"/>
<path d="M5.16015 12.2462C6.49577 9.9781 8.82745 9.10621 11.5403 10.1044C10.4517 12.6969 8.21206 13.3691 5.16015 12.2462Z" fill="#373737"/>
<path d="M3.47016 4.90966C5.64362 6.72807 5.86163 9.07028 4.29959 11.2079C1.85444 9.1622 1.48733 6.98681 3.47016 4.90966Z" fill="#373737"/>
<path d="M8.34834 7.87457C9.94374 5.75873 12.3644 5.13369 14.9427 6.40669C13.5545 8.8706 11.2489 9.30668 8.34834 7.87457Z" fill="#373737"/>
<path d="M7.75305 0.596947C10.056 2.36096 10.0537 4.56348 7.97722 6.93951C6.07986 5.05462 5.90723 2.70901 7.75305 0.596947Z" fill="#373737"/>
<path d="M16 0C16 2.78575 14.1782 4.17863 10.8989 4.17863C11.2557 1.6103 13.0851 1.35212e-05 16 0Z" fill="#373737"/>
</svg>
