<svg width="294" height="73" viewBox="0 0 294 73" fill="none" xmlns="http://www.w3.org/2000/svg">
<path d="M46.5464 73H0.0914064V1.74999H48.4464C51.6131 1.74999 54.5264 2.13 57.1864 2.89C59.9097 3.65 62.2214 4.79 64.1214 6.31C66.0847 7.83 67.6047 9.76166 68.6814 12.105C69.8214 14.385 70.3914 17.0767 70.3914 20.18C70.3914 23.8533 69.4097 27.2417 67.4464 30.345C65.5464 33.4483 62.4431 35.76 58.1364 37.28C62.1897 38.6733 65.2297 40.795 67.2564 43.645C69.3464 46.495 70.3914 49.9467 70.3914 54C70.3914 57.23 69.7897 60.0483 68.5864 62.455C67.3831 64.7983 65.7364 66.7617 63.6464 68.345C61.5564 69.9283 59.0231 71.1 56.0464 71.86C53.1331 72.62 49.9664 73 46.5464 73ZM24.6014 26.83H45.7864V23.6H24.6014V26.83ZM24.6014 51.15H45.7864V47.92H24.6014V51.15ZM156.137 73H130.012L124.217 57.61H99.0421L93.3421 73H67.5971L88.9721 19.42C91.5054 13.15 94.6721 8.43166 98.4721 5.26499C102.335 2.09833 106.864 0.514999 112.057 0.514999C117.25 0.514999 121.747 2.09833 125.547 5.26499C129.41 8.43166 132.577 13.15 135.047 19.42L156.137 73ZM106.832 36.615H116.237L111.487 24.17L106.832 36.615ZM197.426 73H157.621V51.15H201.131V47.92H180.231C177.127 47.92 174.119 47.3817 171.206 46.305C168.356 45.165 165.854 43.5817 163.701 41.555C161.611 39.465 159.901 36.9633 158.571 34.05C157.304 31.1367 156.671 27.875 156.671 24.265C156.671 21.1617 157.272 18.2483 158.476 15.525C159.742 12.7383 161.452 10.3317 163.606 8.30499C165.759 6.27833 168.324 4.695 171.301 3.555C174.277 2.35166 177.444 1.74999 180.801 1.74999H224.026V23.6H182.131V26.83H198.946C202.746 26.83 206.261 27.305 209.491 28.255C212.721 29.1417 215.476 30.535 217.756 32.435C220.036 34.2717 221.809 36.615 223.076 39.465C224.342 42.2517 224.976 45.5133 224.976 49.25C224.976 56.3433 222.537 62.075 217.661 66.445C212.784 70.815 206.039 73 197.426 73ZM293.875 73H227.85V1.74999H293.875V23.6H253.025V26.83H293.875V47.92H253.025V51.15H293.875V73Z" fill="white"/>
</svg>
