<svg width="512" height="368" viewBox="0 0 512 368" fill="none" xmlns="http://www.w3.org/2000/svg">
<path d="M4 252V256M4 256V260M4 256H0M4 256H8M22 252V256M22 256V260M22 256H18M22 256H26M40 252V256M40 256V260M40 256H36M40 256H44M58 252V256M58 256V260M58 256H54M58 256H62M76 252V256M76 256V260M76 256H72M76 256H80M94 252V256M94 256V260M94 256H90M94 256H98M112 252V256M112 256V260M112 256H108M112 256H116M130 252V256M130 256V260M130 256H126M130 256H134M148 252V256M148 256V260M148 256H144M148 256H152M166 252V256M166 256V260M166 256H162M166 256H170M184 252V256M184 256V260M184 256H180M184 256H188M202 252V256M202 256V260M202 256H198M202 256H206M220 252V256M220 256V260M220 256H216M220 256H224M238 252V256M238 256V260M238 256H234M238 256H242M256 252V256M256 256V260M256 256H252M256 256H260M274 252V256M274 256V260M274 256H270M274 256H278M4 270V274M4 274V278M4 274H0M4 274H8M22 270V274M22 274V278M22 274H18M22 274H26M40 270V274M40 274V278M40 274H36M40 274H44M58 270V274M58 274V278M58 274H54M58 274H62M4 288V292M4 292V296M4 292H0M4 292H8M22 288V292M22 292V296M22 292H18M22 292H26M40 288V292M40 292V296M40 292H36M40 292H44M58 288V292M58 292V296M58 292H54M58 292H62M76 270V274M76 274V278M76 274H72M76 274H80M94 270V274M94 274V278M94 274H90M94 274H98M112 270V274M112 274V278M112 274H108M112 274H116M130 270V274M130 274V278M130 274H126M130 274H134M76 288V292M76 292V296M76 292H72M76 292H80M94 288V292M94 292V296M94 292H90M94 292H98M112 288V292M112 292V296M112 292H108M112 292H116M130 288V292M130 292V296M130 292H126M130 292H134M76 306V310M76 310V314M76 310H72M76 310H80M94 306V310M94 310V314M94 310H90M94 310H98M112 306V310M112 310V314M112 310H108M112 310H116M130 306V310M130 310V314M130 310H126M130 310H134M148 270V274M148 274V278M148 274H144M148 274H152M166 270V274M166 274V278M166 274H162M166 274H170M184 270V274M184 274V278M184 274H180M184 274H188M202 270V274M202 274V278M202 274H198M202 274H206M148 288V292M148 292V296M148 292H144M148 292H152M166 288V292M166 292V296M166 292H162M166 292H170M184 288V292M184 292V296M184 292H180M184 292H188M202 288V292M202 292V296M202 292H198M202 292H206M148 306V310M148 310V314M148 310H144M148 310H152M166 306V310M166 310V314M166 310H162M166 310H170M184 306V310M184 310V314M184 310H180M184 310H188M202 306V310M202 310V314M202 310H198M202 310H206M4 306V310M4 310V314M4 310H0M4 310H8M22 306V310M22 310V314M22 310H18M22 310H26M40 306V310M40 310V314M40 310H36M40 310H44M58 306V310M58 310V314M58 310H54M58 310H62M4 324V328M4 328V332M4 328H0M4 328H8M22 324V328M22 328V332M22 328H18M22 328H26M40 324V328M40 328V332M40 328H36M40 328H44M58 324V328M58 328V332M58 328H54M58 328H62M4 342V346M4 346V350M4 346H0M4 346H8M22 342V346M22 346V350M22 346H18M22 346H26M40 342V346M40 346V350M40 346H36M40 346H44M58 342V346M58 346V350M58 346H54M58 346H62M220 270V274M220 274V278M220 274H216M220 274H224M238 270V274M238 274V278M238 274H234M238 274H242M256 270V274M256 274V278M256 274H252M256 274H260M274 270V274M274 274V278M274 274H270M274 274H278M220 288V292M220 292V296M220 292H216M220 292H224M238 288V292M238 292V296M238 292H234M238 292H242M256 288V292M256 292V296M256 292H252M256 292H260M274 288V292M274 292V296M274 292H270M274 292H278M220 306V310M220 310V314M220 310H216M220 310H224M238 306V310M238 310V314M238 310H234M238 310H242M256 306V310M256 310V314M256 310H252M256 310H260M274 306V310M274 310V314M274 310H270M274 310H278M76 324V328M76 328V332M76 328H72M76 328H80M94 324V328M94 328V332M94 328H90M94 328H98M112 324V328M112 328V332M112 328H108M112 328H116M130 324V328M130 328V332M130 328H126M130 328H134M76 342V346M76 346V350M76 346H72M76 346H80M94 342V346M94 346V350M94 346H90M94 346H98M112 342V346M112 346V350M112 346H108M112 346H116M130 342V346M130 346V350M130 346H126M130 346H134M76 360V364M76 364V368M76 364H72M76 364H80M94 360V364M94 364V368M94 364H90M94 364H98M112 360V364M112 364V368M112 364H108M112 364H116M130 360V364M130 364V368M130 364H126M130 364H134M148 324V328M148 328V332M148 328H144M148 328H152M166 324V328M166 328V332M166 328H162M166 328H170M184 324V328M184 328V332M184 328H180M184 328H188M202 324V328M202 328V332M202 328H198M202 328H206M148 342V346M148 346V350M148 346H144M148 346H152M166 342V346M166 346V350M166 346H162M166 346H170M184 342V346M184 346V350M184 346H180M184 346H188M202 342V346M202 346V350M202 346H198M202 346H206M148 360V364M148 364V368M148 364H144M148 364H152M166 360V364M166 364V368M166 364H162M166 364H170M184 360V364M184 364V368M184 364H180M184 364H188M202 360V364M202 364V368M202 364H198M202 364H206M220 324V328M220 328V332M220 328H216M220 328H224M238 324V328M238 328V332M238 328H234M238 328H242M256 324V328M256 328V332M256 328H252M256 328H260M274 324V328M274 328V332M274 328H270M274 328H278M220 342V346M220 346V350M220 346H216M220 346H224M238 342V346M238 346V350M238 346H234M238 346H242M256 342V346M256 346V350M256 346H252M256 346H260M274 342V346M274 346V350M274 346H270M274 346H278M220 360V364M220 364V368M220 364H216M220 364H224M238 360V364M238 364V368M238 364H234M238 364H242M256 360V364M256 364V368M256 364H252M256 364H260M274 360V364M274 364V368M274 364H270M274 364H278M4 360V364M4 364V368M4 364H0M4 364H8M22 360V364M22 364V368M22 364H18M22 364H26M40 360V364M40 364V368M40 364H36M40 364H44M58 360V364M58 364V368M58 364H54M58 364H62M292 252V256M292 256V260M292 256H288M292 256H296M310 252V256M310 256V260M310 256H306M310 256H314M328 252V256M328 256V260M328 256H324M328 256H332M346 252V256M346 256V260M346 256H342M346 256H350M364 252V256M364 256V260M364 256H360M364 256H368M382 252V256M382 256V260M382 256H378M382 256H386M400 252V256M400 256V260M400 256H396M400 256H404M418 252V256M418 256V260M418 256H414M418 256H422M436 252V256M436 256V260M436 256H432M436 256H440M454 252V256M454 256V260M454 256H450M454 256H458M472 252V256M472 256V260M472 256H468M472 256H476M490 252V256M490 256V260M490 256H486M490 256H494M508 252V256M508 256V260M508 256H504M508 256H512M292 270V274M292 274V278M292 274H288M292 274H296M310 270V274M310 274V278M310 274H306M310 274H314M328 270V274M328 274V278M328 274H324M328 274H332M346 270V274M346 274V278M346 274H342M346 274H350M292 288V292M292 292V296M292 292H288M292 292H296M310 288V292M310 292V296M310 292H306M310 292H314M328 288V292M328 292V296M328 292H324M328 292H332M346 288V292M346 292V296M346 292H342M346 292H350M364 270V274M364 274V278M364 274H360M364 274H368M382 270V274M382 274V278M382 274H378M382 274H386M400 270V274M400 274V278M400 274H396M400 274H404M418 270V274M418 274V278M418 274H414M418 274H422M364 288V292M364 292V296M364 292H360M364 292H368M382 288V292M382 292V296M382 292H378M382 292H386M400 288V292M400 292V296M400 292H396M400 292H404M418 288V292M418 292V296M418 292H414M418 292H422M364 306V310M364 310V314M364 310H360M364 310H368M382 306V310M382 310V314M382 310H378M382 310H386M400 306V310M400 310V314M400 310H396M400 310H404M418 306V310M418 310V314M418 310H414M418 310H422M436 270V274M436 274V278M436 274H432M436 274H440M454 270V274M454 274V278M454 274H450M454 274H458M472 270V274M472 274V278M472 274H468M472 274H476M490 270V274M490 274V278M490 274H486M490 274H494M436 288V292M436 292V296M436 292H432M436 292H440M454 288V292M454 292V296M454 292H450M454 292H458M472 288V292M472 292V296M472 292H468M472 292H476M490 288V292M490 292V296M490 292H486M490 292H494M436 306V310M436 310V314M436 310H432M436 310H440M454 306V310M454 310V314M454 310H450M454 310H458M472 306V310M472 310V314M472 310H468M472 310H476M490 306V310M490 310V314M490 310H486M490 310H494M292 306V310M292 310V314M292 310H288M292 310H296M310 306V310M310 310V314M310 310H306M310 310H314M328 306V310M328 310V314M328 310H324M328 310H332M346 306V310M346 310V314M346 310H342M346 310H350M292 324V328M292 328V332M292 328H288M292 328H296M310 324V328M310 328V332M310 328H306M310 328H314M328 324V328M328 328V332M328 328H324M328 328H332M346 324V328M346 328V332M346 328H342M346 328H350M292 342V346M292 346V350M292 346H288M292 346H296M310 342V346M310 346V350M310 346H306M310 346H314M328 342V346M328 346V350M328 346H324M328 346H332M346 342V346M346 346V350M346 346H342M346 346H350M508 270V274M508 274V278M508 274H504M508 274H512M508 288V292M508 292V296M508 292H504M508 292H512M508 306V310M508 310V314M508 310H504M508 310H512M364 324V328M364 328V332M364 328H360M364 328H368M382 324V328M382 328V332M382 328H378M382 328H386M400 324V328M400 328V332M400 328H396M400 328H404M418 324V328M418 328V332M418 328H414M418 328H422M364 342V346M364 346V350M364 346H360M364 346H368M382 342V346M382 346V350M382 346H378M382 346H386M400 342V346M400 346V350M400 346H396M400 346H404M418 342V346M418 346V350M418 346H414M418 346H422M364 360V364M364 364V368M364 364H360M364 364H368M382 360V364M382 364V368M382 364H378M382 364H386M400 360V364M400 364V368M400 364H396M400 364H404M418 360V364M418 364V368M418 364H414M418 364H422M436 324V328M436 328V332M436 328H432M436 328H440M454 324V328M454 328V332M454 328H450M454 328H458M472 324V328M472 328V332M472 328H468M472 328H476M490 324V328M490 328V332M490 328H486M490 328H494M436 342V346M436 346V350M436 346H432M436 346H440M454 342V346M454 346V350M454 346H450M454 346H458M472 342V346M472 346V350M472 346H468M472 346H476M490 342V346M490 346V350M490 346H486M490 346H494M436 360V364M436 364V368M436 364H432M436 364H440M454 360V364M454 364V368M454 364H450M454 364H458M472 360V364M472 364V368M472 364H468M472 364H476M490 360V364M490 364V368M490 364H486M490 364H494M508 324V328M508 328V332M508 328H504M508 328H512M508 342V346M508 346V350M508 346H504M508 346H512M508 360V364M508 364V368M508 364H504M508 364H512M292 360V364M292 364V368M292 364H288M292 364H296M310 360V364M310 364V368M310 364H306M310 364H314M328 360V364M328 364V368M328 364H324M328 364H332M346 360V364M346 364V368M346 364H342M346 364H350M4 126V130M4 130V134M4 130H0M4 130H8M22 126V130M22 130V134M22 130H18M22 130H26M40 126V130M40 130V134M40 130H36M40 130H44M58 126V130M58 130V134M58 130H54M58 130H62M76 126V130M76 130V134M76 130H72M76 130H80M94 126V130M94 130V134M94 130H90M94 130H98M112 126V130M112 130V134M112 130H108M112 130H116M130 126V130M130 130V134M130 130H126M130 130H134M148 126V130M148 130V134M148 130H144M148 130H152M166 126V130M166 130V134M166 130H162M166 130H170M184 126V130M184 130V134M184 130H180M184 130H188M202 126V130M202 130V134M202 130H198M202 130H206M220 126V130M220 130V134M220 130H216M220 130H224M238 126V130M238 130V134M238 130H234M238 130H242M256 126V130M256 130V134M256 130H252M256 130H260M274 126V130M274 130V134M274 130H270M274 130H278M4 144V148M4 148V152M4 148H0M4 148H8M22 144V148M22 148V152M22 148H18M22 148H26M40 144V148M40 148V152M40 148H36M40 148H44M58 144V148M58 148V152M58 148H54M58 148H62M4 162V166M4 166V170M4 166H0M4 166H8M22 162V166M22 166V170M22 166H18M22 166H26M40 162V166M40 166V170M40 166H36M40 166H44M58 162V166M58 166V170M58 166H54M58 166H62M76 144V148M76 148V152M76 148H72M76 148H80M94 144V148M94 148V152M94 148H90M94 148H98M112 144V148M112 148V152M112 148H108M112 148H116M130 144V148M130 148V152M130 148H126M130 148H134M76 162V166M76 166V170M76 166H72M76 166H80M94 162V166M94 166V170M94 166H90M94 166H98M112 162V166M112 166V170M112 166H108M112 166H116M130 162V166M130 166V170M130 166H126M130 166H134M76 180V184M76 184V188M76 184H72M76 184H80M94 180V184M94 184V188M94 184H90M94 184H98M112 180V184M112 184V188M112 184H108M112 184H116M130 180V184M130 184V188M130 184H126M130 184H134M148 144V148M148 148V152M148 148H144M148 148H152M166 144V148M166 148V152M166 148H162M166 148H170M184 144V148M184 148V152M184 148H180M184 148H188M202 144V148M202 148V152M202 148H198M202 148H206M148 162V166M148 166V170M148 166H144M148 166H152M166 162V166M166 166V170M166 166H162M166 166H170M184 162V166M184 166V170M184 166H180M184 166H188M202 162V166M202 166V170M202 166H198M202 166H206M148 180V184M148 184V188M148 184H144M148 184H152M166 180V184M166 184V188M166 184H162M166 184H170M184 180V184M184 184V188M184 184H180M184 184H188M202 180V184M202 184V188M202 184H198M202 184H206M4 180V184M4 184V188M4 184H0M4 184H8M22 180V184M22 184V188M22 184H18M22 184H26M40 180V184M40 184V188M40 184H36M40 184H44M58 180V184M58 184V188M58 184H54M58 184H62M4 198V202M4 202V206M4 202H0M4 202H8M22 198V202M22 202V206M22 202H18M22 202H26M40 198V202M40 202V206M40 202H36M40 202H44M58 198V202M58 202V206M58 202H54M58 202H62M4 216V220M4 220V224M4 220H0M4 220H8M22 216V220M22 220V224M22 220H18M22 220H26M40 216V220M40 220V224M40 220H36M40 220H44M58 216V220M58 220V224M58 220H54M58 220H62M220 144V148M220 148V152M220 148H216M220 148H224M238 144V148M238 148V152M238 148H234M238 148H242M256 144V148M256 148V152M256 148H252M256 148H260M274 144V148M274 148V152M274 148H270M274 148H278M220 162V166M220 166V170M220 166H216M220 166H224M238 162V166M238 166V170M238 166H234M238 166H242M256 162V166M256 166V170M256 166H252M256 166H260M274 162V166M274 166V170M274 166H270M274 166H278M220 180V184M220 184V188M220 184H216M220 184H224M238 180V184M238 184V188M238 184H234M238 184H242M256 180V184M256 184V188M256 184H252M256 184H260M274 180V184M274 184V188M274 184H270M274 184H278M76 198V202M76 202V206M76 202H72M76 202H80M94 198V202M94 202V206M94 202H90M94 202H98M112 198V202M112 202V206M112 202H108M112 202H116M130 198V202M130 202V206M130 202H126M130 202H134M76 216V220M76 220V224M76 220H72M76 220H80M94 216V220M94 220V224M94 220H90M94 220H98M112 216V220M112 220V224M112 220H108M112 220H116M130 216V220M130 220V224M130 220H126M130 220H134M76 234V238M76 238V242M76 238H72M76 238H80M94 234V238M94 238V242M94 238H90M94 238H98M112 234V238M112 238V242M112 238H108M112 238H116M130 234V238M130 238V242M130 238H126M130 238H134M148 198V202M148 202V206M148 202H144M148 202H152M166 198V202M166 202V206M166 202H162M166 202H170M184 198V202M184 202V206M184 202H180M184 202H188M202 198V202M202 202V206M202 202H198M202 202H206M148 216V220M148 220V224M148 220H144M148 220H152M166 216V220M166 220V224M166 220H162M166 220H170M184 216V220M184 220V224M184 220H180M184 220H188M202 216V220M202 220V224M202 220H198M202 220H206M148 234V238M148 238V242M148 238H144M148 238H152M166 234V238M166 238V242M166 238H162M166 238H170M184 234V238M184 238V242M184 238H180M184 238H188M202 234V238M202 238V242M202 238H198M202 238H206M220 198V202M220 202V206M220 202H216M220 202H224M238 198V202M238 202V206M238 202H234M238 202H242M256 198V202M256 202V206M256 202H252M256 202H260M274 198V202M274 202V206M274 202H270M274 202H278M220 216V220M220 220V224M220 220H216M220 220H224M238 216V220M238 220V224M238 220H234M238 220H242M256 216V220M256 220V224M256 220H252M256 220H260M274 216V220M274 220V224M274 220H270M274 220H278M220 234V238M220 238V242M220 238H216M220 238H224M238 234V238M238 238V242M238 238H234M238 238H242M256 234V238M256 238V242M256 238H252M256 238H260M274 234V238M274 238V242M274 238H270M274 238H278M4 234V238M4 238V242M4 238H0M4 238H8M22 234V238M22 238V242M22 238H18M22 238H26M40 234V238M40 238V242M40 238H36M40 238H44M58 234V238M58 238V242M58 238H54M58 238H62M292 126V130M292 130V134M292 130H288M292 130H296M310 126V130M310 130V134M310 130H306M310 130H314M328 126V130M328 130V134M328 130H324M328 130H332M346 126V130M346 130V134M346 130H342M346 130H350M364 126V130M364 130V134M364 130H360M364 130H368M382 126V130M382 130V134M382 130H378M382 130H386M400 126V130M400 130V134M400 130H396M400 130H404M418 126V130M418 130V134M418 130H414M418 130H422M436 126V130M436 130V134M436 130H432M436 130H440M454 126V130M454 130V134M454 130H450M454 130H458M472 126V130M472 130V134M472 130H468M472 130H476M490 126V130M490 130V134M490 130H486M490 130H494M508 126V130M508 130V134M508 130H504M508 130H512M292 144V148M292 148V152M292 148H288M292 148H296M310 144V148M310 148V152M310 148H306M310 148H314M328 144V148M328 148V152M328 148H324M328 148H332M346 144V148M346 148V152M346 148H342M346 148H350M292 162V166M292 166V170M292 166H288M292 166H296M310 162V166M310 166V170M310 166H306M310 166H314M328 162V166M328 166V170M328 166H324M328 166H332M346 162V166M346 166V170M346 166H342M346 166H350M364 144V148M364 148V152M364 148H360M364 148H368M382 144V148M382 148V152M382 148H378M382 148H386M400 144V148M400 148V152M400 148H396M400 148H404M418 144V148M418 148V152M418 148H414M418 148H422M364 162V166M364 166V170M364 166H360M364 166H368M382 162V166M382 166V170M382 166H378M382 166H386M400 162V166M400 166V170M400 166H396M400 166H404M418 162V166M418 166V170M418 166H414M418 166H422M364 180V184M364 184V188M364 184H360M364 184H368M382 180V184M382 184V188M382 184H378M382 184H386M400 180V184M400 184V188M400 184H396M400 184H404M418 180V184M418 184V188M418 184H414M418 184H422M436 144V148M436 148V152M436 148H432M436 148H440M454 144V148M454 148V152M454 148H450M454 148H458M472 144V148M472 148V152M472 148H468M472 148H476M490 144V148M490 148V152M490 148H486M490 148H494M436 162V166M436 166V170M436 166H432M436 166H440M454 162V166M454 166V170M454 166H450M454 166H458M472 162V166M472 166V170M472 166H468M472 166H476M490 162V166M490 166V170M490 166H486M490 166H494M436 180V184M436 184V188M436 184H432M436 184H440M454 180V184M454 184V188M454 184H450M454 184H458M472 180V184M472 184V188M472 184H468M472 184H476M490 180V184M490 184V188M490 184H486M490 184H494M292 180V184M292 184V188M292 184H288M292 184H296M310 180V184M310 184V188M310 184H306M310 184H314M328 180V184M328 184V188M328 184H324M328 184H332M346 180V184M346 184V188M346 184H342M346 184H350M292 198V202M292 202V206M292 202H288M292 202H296M310 198V202M310 202V206M310 202H306M310 202H314M328 198V202M328 202V206M328 202H324M328 202H332M346 198V202M346 202V206M346 202H342M346 202H350M292 216V220M292 220V224M292 220H288M292 220H296M310 216V220M310 220V224M310 220H306M310 220H314M328 216V220M328 220V224M328 220H324M328 220H332M346 216V220M346 220V224M346 220H342M346 220H350M508 144V148M508 148V152M508 148H504M508 148H512M508 162V166M508 166V170M508 166H504M508 166H512M508 180V184M508 184V188M508 184H504M508 184H512M364 198V202M364 202V206M364 202H360M364 202H368M382 198V202M382 202V206M382 202H378M382 202H386M400 198V202M400 202V206M400 202H396M400 202H404M418 198V202M418 202V206M418 202H414M418 202H422M364 216V220M364 220V224M364 220H360M364 220H368M382 216V220M382 220V224M382 220H378M382 220H386M400 216V220M400 220V224M400 220H396M400 220H404M418 216V220M418 220V224M418 220H414M418 220H422M364 234V238M364 238V242M364 238H360M364 238H368M382 234V238M382 238V242M382 238H378M382 238H386M400 234V238M400 238V242M400 238H396M400 238H404M418 234V238M418 238V242M418 238H414M418 238H422M436 198V202M436 202V206M436 202H432M436 202H440M454 198V202M454 202V206M454 202H450M454 202H458M472 198V202M472 202V206M472 202H468M472 202H476M490 198V202M490 202V206M490 202H486M490 202H494M436 216V220M436 220V224M436 220H432M436 220H440M454 216V220M454 220V224M454 220H450M454 220H458M472 216V220M472 220V224M472 220H468M472 220H476M490 216V220M490 220V224M490 220H486M490 220H494M436 234V238M436 238V242M436 238H432M436 238H440M454 234V238M454 238V242M454 238H450M454 238H458M472 234V238M472 238V242M472 238H468M472 238H476M490 234V238M490 238V242M490 238H486M490 238H494M508 198V202M508 202V206M508 202H504M508 202H512M508 216V220M508 220V224M508 220H504M508 220H512M508 234V238M508 238V242M508 238H504M508 238H512M292 234V238M292 238V242M292 238H288M292 238H296M310 234V238M310 238V242M310 238H306M310 238H314M328 234V238M328 238V242M328 238H324M328 238H332M346 234V238M346 238V242M346 238H342M346 238H350M4 0V4M4 4V8M4 4H0M4 4H8M22 0V4M22 4V8M22 4H18M22 4H26M40 0V4M40 4V8M40 4H36M40 4H44M58 0V4M58 4V8M58 4H54M58 4H62M76 0V4M76 4V8M76 4H72M76 4H80M94 0V4M94 4V8M94 4H90M94 4H98M112 0V4M112 4V8M112 4H108M112 4H116M130 0V4M130 4V8M130 4H126M130 4H134M148 0V4M148 4V8M148 4H144M148 4H152M166 0V4M166 4V8M166 4H162M166 4H170M184 0V4M184 4V8M184 4H180M184 4H188M202 0V4M202 4V8M202 4H198M202 4H206M220 0V4M220 4V8M220 4H216M220 4H224M238 0V4M238 4V8M238 4H234M238 4H242M256 0V4M256 4V8M256 4H252M256 4H260M274 0V4M274 4V8M274 4H270M274 4H278M4 18V22M4 22V26M4 22H0M4 22H8M22 18V22M22 22V26M22 22H18M22 22H26M40 18V22M40 22V26M40 22H36M40 22H44M58 18V22M58 22V26M58 22H54M58 22H62M4 36V40M4 40V44M4 40H0M4 40H8M22 36V40M22 40V44M22 40H18M22 40H26M40 36V40M40 40V44M40 40H36M40 40H44M58 36V40M58 40V44M58 40H54M58 40H62M76 18V22M76 22V26M76 22H72M76 22H80M94 18V22M94 22V26M94 22H90M94 22H98M112 18V22M112 22V26M112 22H108M112 22H116M130 18V22M130 22V26M130 22H126M130 22H134M76 36V40M76 40V44M76 40H72M76 40H80M94 36V40M94 40V44M94 40H90M94 40H98M112 36V40M112 40V44M112 40H108M112 40H116M130 36V40M130 40V44M130 40H126M130 40H134M76 54V58M76 58V62M76 58H72M76 58H80M94 54V58M94 58V62M94 58H90M94 58H98M112 54V58M112 58V62M112 58H108M112 58H116M130 54V58M130 58V62M130 58H126M130 58H134M148 18V22M148 22V26M148 22H144M148 22H152M166 18V22M166 22V26M166 22H162M166 22H170M184 18V22M184 22V26M184 22H180M184 22H188M202 18V22M202 22V26M202 22H198M202 22H206M148 36V40M148 40V44M148 40H144M148 40H152M166 36V40M166 40V44M166 40H162M166 40H170M184 36V40M184 40V44M184 40H180M184 40H188M202 36V40M202 40V44M202 40H198M202 40H206M148 54V58M148 58V62M148 58H144M148 58H152M166 54V58M166 58V62M166 58H162M166 58H170M184 54V58M184 58V62M184 58H180M184 58H188M202 54V58M202 58V62M202 58H198M202 58H206M4 54V58M4 58V62M4 58H0M4 58H8M22 54V58M22 58V62M22 58H18M22 58H26M40 54V58M40 58V62M40 58H36M40 58H44M58 54V58M58 58V62M58 58H54M58 58H62M4 72V76M4 76V80M4 76H0M4 76H8M22 72V76M22 76V80M22 76H18M22 76H26M40 72V76M40 76V80M40 76H36M40 76H44M58 72V76M58 76V80M58 76H54M58 76H62M4 90V94M4 94V98M4 94H0M4 94H8M22 90V94M22 94V98M22 94H18M22 94H26M40 90V94M40 94V98M40 94H36M40 94H44M58 90V94M58 94V98M58 94H54M58 94H62M220 18V22M220 22V26M220 22H216M220 22H224M238 18V22M238 22V26M238 22H234M238 22H242M256 18V22M256 22V26M256 22H252M256 22H260M274 18V22M274 22V26M274 22H270M274 22H278M220 36V40M220 40V44M220 40H216M220 40H224M238 36V40M238 40V44M238 40H234M238 40H242M256 36V40M256 40V44M256 40H252M256 40H260M274 36V40M274 40V44M274 40H270M274 40H278M220 54V58M220 58V62M220 58H216M220 58H224M238 54V58M238 58V62M238 58H234M238 58H242M256 54V58M256 58V62M256 58H252M256 58H260M274 54V58M274 58V62M274 58H270M274 58H278M76 72V76M76 76V80M76 76H72M76 76H80M94 72V76M94 76V80M94 76H90M94 76H98M112 72V76M112 76V80M112 76H108M112 76H116M130 72V76M130 76V80M130 76H126M130 76H134M76 90V94M76 94V98M76 94H72M76 94H80M94 90V94M94 94V98M94 94H90M94 94H98M112 90V94M112 94V98M112 94H108M112 94H116M130 90V94M130 94V98M130 94H126M130 94H134M76 108V112M76 112V116M76 112H72M76 112H80M94 108V112M94 112V116M94 112H90M94 112H98M112 108V112M112 112V116M112 112H108M112 112H116M130 108V112M130 112V116M130 112H126M130 112H134M148 72V76M148 76V80M148 76H144M148 76H152M166 72V76M166 76V80M166 76H162M166 76H170M184 72V76M184 76V80M184 76H180M184 76H188M202 72V76M202 76V80M202 76H198M202 76H206M148 90V94M148 94V98M148 94H144M148 94H152M166 90V94M166 94V98M166 94H162M166 94H170M184 90V94M184 94V98M184 94H180M184 94H188M202 90V94M202 94V98M202 94H198M202 94H206M148 108V112M148 112V116M148 112H144M148 112H152M166 108V112M166 112V116M166 112H162M166 112H170M184 108V112M184 112V116M184 112H180M184 112H188M202 108V112M202 112V116M202 112H198M202 112H206M220 72V76M220 76V80M220 76H216M220 76H224M238 72V76M238 76V80M238 76H234M238 76H242M256 72V76M256 76V80M256 76H252M256 76H260M274 72V76M274 76V80M274 76H270M274 76H278M220 90V94M220 94V98M220 94H216M220 94H224M238 90V94M238 94V98M238 94H234M238 94H242M256 90V94M256 94V98M256 94H252M256 94H260M274 90V94M274 94V98M274 94H270M274 94H278M220 108V112M220 112V116M220 112H216M220 112H224M238 108V112M238 112V116M238 112H234M238 112H242M256 108V112M256 112V116M256 112H252M256 112H260M274 108V112M274 112V116M274 112H270M274 112H278M4 108V112M4 112V116M4 112H0M4 112H8M22 108V112M22 112V116M22 112H18M22 112H26M40 108V112M40 112V116M40 112H36M40 112H44M58 108V112M58 112V116M58 112H54M58 112H62M292 0V4M292 4V8M292 4H288M292 4H296M310 0V4M310 4V8M310 4H306M310 4H314M328 0V4M328 4V8M328 4H324M328 4H332M346 0V4M346 4V8M346 4H342M346 4H350M364 0V4M364 4V8M364 4H360M364 4H368M382 0V4M382 4V8M382 4H378M382 4H386M400 0V4M400 4V8M400 4H396M400 4H404M418 0V4M418 4V8M418 4H414M418 4H422M436 0V4M436 4V8M436 4H432M436 4H440M454 0V4M454 4V8M454 4H450M454 4H458M472 0V4M472 4V8M472 4H468M472 4H476M490 0V4M490 4V8M490 4H486M490 4H494M508 0V4M508 4V8M508 4H504M508 4H512M292 18V22M292 22V26M292 22H288M292 22H296M310 18V22M310 22V26M310 22H306M310 22H314M328 18V22M328 22V26M328 22H324M328 22H332M346 18V22M346 22V26M346 22H342M346 22H350M292 36V40M292 40V44M292 40H288M292 40H296M310 36V40M310 40V44M310 40H306M310 40H314M328 36V40M328 40V44M328 40H324M328 40H332M346 36V40M346 40V44M346 40H342M346 40H350M364 18V22M364 22V26M364 22H360M364 22H368M382 18V22M382 22V26M382 22H378M382 22H386M400 18V22M400 22V26M400 22H396M400 22H404M418 18V22M418 22V26M418 22H414M418 22H422M364 36V40M364 40V44M364 40H360M364 40H368M382 36V40M382 40V44M382 40H378M382 40H386M400 36V40M400 40V44M400 40H396M400 40H404M418 36V40M418 40V44M418 40H414M418 40H422M364 54V58M364 58V62M364 58H360M364 58H368M382 54V58M382 58V62M382 58H378M382 58H386M400 54V58M400 58V62M400 58H396M400 58H404M418 54V58M418 58V62M418 58H414M418 58H422M436 18V22M436 22V26M436 22H432M436 22H440M454 18V22M454 22V26M454 22H450M454 22H458M472 18V22M472 22V26M472 22H468M472 22H476M490 18V22M490 22V26M490 22H486M490 22H494M436 36V40M436 40V44M436 40H432M436 40H440M454 36V40M454 40V44M454 40H450M454 40H458M472 36V40M472 40V44M472 40H468M472 40H476M490 36V40M490 40V44M490 40H486M490 40H494M436 54V58M436 58V62M436 58H432M436 58H440M454 54V58M454 58V62M454 58H450M454 58H458M472 54V58M472 58V62M472 58H468M472 58H476M490 54V58M490 58V62M490 58H486M490 58H494M292 54V58M292 58V62M292 58H288M292 58H296M310 54V58M310 58V62M310 58H306M310 58H314M328 54V58M328 58V62M328 58H324M328 58H332M346 54V58M346 58V62M346 58H342M346 58H350M292 72V76M292 76V80M292 76H288M292 76H296M310 72V76M310 76V80M310 76H306M310 76H314M328 72V76M328 76V80M328 76H324M328 76H332M346 72V76M346 76V80M346 76H342M346 76H350M292 90V94M292 94V98M292 94H288M292 94H296M310 90V94M310 94V98M310 94H306M310 94H314M328 90V94M328 94V98M328 94H324M328 94H332M346 90V94M346 94V98M346 94H342M346 94H350M508 18V22M508 22V26M508 22H504M508 22H512M508 36V40M508 40V44M508 40H504M508 40H512M508 54V58M508 58V62M508 58H504M508 58H512M364 72V76M364 76V80M364 76H360M364 76H368M382 72V76M382 76V80M382 76H378M382 76H386M400 72V76M400 76V80M400 76H396M400 76H404M418 72V76M418 76V80M418 76H414M418 76H422M364 90V94M364 94V98M364 94H360M364 94H368M382 90V94M382 94V98M382 94H378M382 94H386M400 90V94M400 94V98M400 94H396M400 94H404M418 90V94M418 94V98M418 94H414M418 94H422M364 108V112M364 112V116M364 112H360M364 112H368M382 108V112M382 112V116M382 112H378M382 112H386M400 108V112M400 112V116M400 112H396M400 112H404M418 108V112M418 112V116M418 112H414M418 112H422M436 72V76M436 76V80M436 76H432M436 76H440M454 72V76M454 76V80M454 76H450M454 76H458M472 72V76M472 76V80M472 76H468M472 76H476M490 72V76M490 76V80M490 76H486M490 76H494M436 90V94M436 94V98M436 94H432M436 94H440M454 90V94M454 94V98M454 94H450M454 94H458M472 90V94M472 94V98M472 94H468M472 94H476M490 90V94M490 94V98M490 94H486M490 94H494M436 108V112M436 112V116M436 112H432M436 112H440M454 108V112M454 112V116M454 112H450M454 112H458M472 108V112M472 112V116M472 112H468M472 112H476M490 108V112M490 112V116M490 112H486M490 112H494M508 72V76M508 76V80M508 76H504M508 76H512M508 90V94M508 94V98M508 94H504M508 94H512M508 108V112M508 112V116M508 112H504M508 112H512M292 108V112M292 112V116M292 112H288M292 112H296M310 108V112M310 112V116M310 112H306M310 112H314M328 108V112M328 112V116M328 112H324M328 112H332M346 108V112M346 112V116M346 112H342M346 112H350" stroke="url(#paint0_radial_634_2010)"/>
<defs>
<radialGradient id="paint0_radial_634_2010" cx="0" cy="0" r="1" gradientUnits="userSpaceOnUse" gradientTransform="translate(256) rotate(90) scale(368 512)">
<stop offset="0.557692"/>
<stop offset="0.798077" stop-color="#272727"/>
<stop offset="1" stop-color="#636363"/>
</radialGradient>
</defs>
</svg>
