<svg width="13" height="13" viewBox="0 0 13 13" fill="none" xmlns="http://www.w3.org/2000/svg">
<path d="M10.7764 0.353166C10.9725 0.158661 11.289 0.159888 11.4835 0.355905L12.7051 1.58698C12.8996 1.783 12.8984 2.09958 12.7024 2.29409L2.20218 12.7133C2.00616 12.9078 1.68958 12.9065 1.49508 12.7105L0.273498 11.4794C0.0789932 11.2834 0.0802199 10.9668 0.276237 10.7723L10.7764 0.353166Z" fill="#505050"/>
<path d="M12.7123 10.855C12.9068 11.0511 12.9056 11.3676 12.7095 11.5622L11.4785 12.7837C11.2824 12.9782 10.9659 12.977 10.7714 12.781L0.352194 2.28079C0.157689 2.08477 0.158916 1.76819 0.354933 1.57369L1.58601 0.352111C1.78203 0.157607 2.09861 0.158833 2.29311 0.35485L12.7123 10.855Z" fill="#505050"/>
</svg>
