<svg width="257" height="76" viewBox="0 0 257 76" fill="none" xmlns="http://www.w3.org/2000/svg">
<path d="M73.4491 73H38.9641C33.2641 73 28.0391 72.0817 23.2891 70.245C18.5391 68.345 14.4541 65.78 11.0341 62.55C7.67745 59.32 5.04912 55.5517 3.14912 51.245C1.24912 46.875 0.299121 42.2517 0.299121 37.375C0.299121 32.4983 1.24912 27.9067 3.14912 23.6C5.04912 19.23 7.67745 15.4617 11.0341 12.295C14.4541 9.06499 18.5391 6.5 23.2891 4.6C28.0391 2.7 33.2641 1.74999 38.9641 1.74999H73.4491V23.6H42.7641C38.0141 23.6 34.0875 24.8033 30.9841 27.21C27.8808 29.6167 26.3291 33.005 26.3291 37.375C26.3291 41.745 27.8808 45.1333 30.9841 47.54C34.0875 49.9467 38.0141 51.15 42.7641 51.15H48.7491V26.83H73.4491V73ZM143.256 73H77.2306V1.74999H143.256V23.6H102.406V26.83H143.256V47.92H102.406V51.15H143.256V73ZM256.719 73H231.069V24.55H228.029V48.585C228.029 52.4483 227.427 56.0267 226.224 59.32C225.084 62.6133 223.374 65.4317 221.094 67.775C218.877 70.055 216.122 71.86 212.829 73.19C209.599 74.52 205.926 75.185 201.809 75.185C197.692 75.185 194.019 74.52 190.789 73.19C187.559 71.86 184.836 70.0233 182.619 67.68C180.402 65.3367 178.692 62.55 177.489 59.32C176.349 56.0267 175.779 52.4483 175.779 48.585V24.55H172.739V73H147.089V27.4C147.089 23.6633 147.754 20.18 149.084 16.95C150.414 13.6567 152.282 10.8383 154.689 8.495C157.096 6.08833 159.946 4.22 163.239 2.89C166.596 1.49666 170.269 0.799995 174.259 0.799995C178.502 0.799995 182.239 1.49666 185.469 2.89C188.762 4.22 191.486 6.12 193.639 8.59C195.856 11.06 197.534 14.0367 198.674 17.52C199.814 21.0033 200.384 24.8033 200.384 28.92V51.435H203.424V28.92C203.424 24.8667 203.994 21.13 205.134 17.71C206.274 14.2267 207.952 11.25 210.169 8.77999C212.449 6.24666 215.267 4.28333 218.624 2.89C222.044 1.49666 226.002 0.799995 230.499 0.799995C234.299 0.799995 237.782 1.49666 240.949 2.89C244.179 4.22 246.966 6.08833 249.309 8.495C251.652 10.8383 253.457 13.6567 254.724 16.95C256.054 20.18 256.719 23.6633 256.719 27.4V73Z" fill="white"/>
</svg>
