<svg width="298" height="75" viewBox="0 0 298 75" fill="none" xmlns="http://www.w3.org/2000/svg">
<path d="M73.3173 73H38.8323C33.1323 73 27.9073 72.0817 23.1573 70.245C18.4073 68.345 14.3223 65.78 10.9023 62.55C7.54562 59.32 4.91729 55.5517 3.01729 51.245C1.11729 46.875 0.167285 42.2517 0.167285 37.375C0.167285 32.4983 1.11729 27.9067 3.01729 23.6C4.91729 19.23 7.54562 15.4617 10.9023 12.295C14.3223 9.06499 18.4073 6.5 23.1573 4.6C27.9073 2.7 33.1323 1.74999 38.8323 1.74999H73.3173V23.6H42.6323C37.8823 23.6 33.9556 24.8033 30.8523 27.21C27.749 29.6167 26.1973 33.005 26.1973 37.375C26.1973 41.745 27.749 45.1333 30.8523 47.54C33.9556 49.9467 37.8823 51.15 42.6323 51.15H48.6173V26.83H73.3173V73ZM115.004 74.615C109.684 74.615 104.649 73.6967 99.8987 71.86C95.1487 70.0233 91.0321 67.4583 87.5487 64.165C84.0654 60.8717 81.2787 56.945 79.1887 52.385C77.1621 47.7617 76.1487 42.7583 76.1487 37.375C76.1487 32.055 77.1621 27.115 79.1887 22.555C81.2787 17.9317 84.0654 13.9733 87.5487 10.68C91.0321 7.38667 95.1487 4.82166 99.8987 2.985C104.649 1.085 109.684 0.134998 115.004 0.134998C120.324 0.134998 125.359 1.085 130.109 2.985C134.859 4.82166 138.975 7.38667 142.459 10.68C145.942 13.9733 148.697 17.9317 150.724 22.555C152.814 27.115 153.859 32.055 153.859 37.375C153.859 42.7583 152.814 47.7617 150.724 52.385C148.697 56.945 145.942 60.8717 142.459 64.165C138.975 67.4583 134.859 70.0233 130.109 71.86C125.359 73.6967 120.324 74.615 115.004 74.615ZM115.004 51.91C119.247 51.91 122.699 50.5483 125.359 47.825C128.019 45.0383 129.349 41.555 129.349 37.375C129.349 33.195 128.019 29.7433 125.359 27.02C122.699 24.2333 119.247 22.84 115.004 22.84C110.76 22.84 107.309 24.2333 104.649 27.02C102.052 29.7433 100.754 33.195 100.754 37.375C100.754 41.555 102.052 45.0383 104.649 47.825C107.309 50.5483 110.76 51.91 115.004 51.91ZM219.398 73H156.698V1.74999H181.398V51.15H219.398V73ZM257.132 73H223.217V1.74999H256.182C262.325 1.74999 267.962 2.63666 273.092 4.40999C278.285 6.18333 282.687 8.65333 286.297 11.82C289.907 14.9233 292.725 18.6283 294.752 22.935C296.779 27.2417 297.792 31.8967 297.792 36.9C297.792 41.9033 296.874 46.6217 295.037 51.055C293.264 55.425 290.635 59.2567 287.152 62.55C283.732 65.78 279.489 68.345 274.422 70.245C269.355 72.0817 263.592 73 257.132 73ZM247.917 51.15H255.042C257.449 51.15 259.729 50.9283 261.882 50.485C264.035 49.9783 265.904 49.1867 267.487 48.11C269.07 46.97 270.337 45.5133 271.287 43.74C272.237 41.9667 272.712 39.7817 272.712 37.185C272.712 34.905 272.237 32.91 271.287 31.2C270.337 29.49 269.07 28.065 267.487 26.925C265.904 25.785 264.035 24.9617 261.882 24.455C259.729 23.885 257.449 23.6 255.042 23.6H247.917V51.15Z" fill="white"/>
</svg>
