<svg width="185" height="68" viewBox="0 0 185 68" fill="none" xmlns="http://www.w3.org/2000/svg">
<path d="M7.16309 66.4639H4.30664C1.56445 60.6367 0.345703 51.1914 0.345703 42.3936C0.345703 25.75 7.3916 10.2871 17.8652 0.0419922H21.2549C10.248 10.7061 3.31641 26.3975 3.31641 42.2793C3.31641 51.4961 4.57324 60.9414 7.16309 66.4639ZM36.2227 52.9434C45.7822 52.9434 53.2471 43.6885 53.2471 31.7676C53.2471 22.8936 48.6006 17.4473 41.0215 17.4473C31.3096 17.4473 23.6543 27.54 23.6543 39.2705C23.6543 47.4209 28.6816 52.9434 36.2227 52.9434ZM16.9131 67.9873H13.9805L25.1777 15.3906H28.0723L26.168 24.3027H26.3584C29.5576 18.4375 35.3467 14.7812 41.5928 14.7812C50.4668 14.7812 56.1797 21.4082 56.1797 31.6152C56.1797 45.2119 47.4961 55.6094 36.1846 55.6094C28.7959 55.6094 23.0449 50.6201 22.207 43.6504H22.0928L16.9131 67.9873ZM72.252 53.0195C79.5264 53.0195 85.9248 48.0303 87.4102 41.2129L88.8574 34.5859L75.7559 35.3477C67.1865 35.8047 62.3115 39.2705 62.3115 45.0215C62.3115 49.7822 66.3486 53.0195 72.252 53.0195ZM71.6807 55.6094C64.5205 55.6094 59.3408 51.3438 59.3408 45.25C59.3408 37.8613 65.3203 33.4434 75.7559 32.8721L89.3525 32.1104L90.0762 28.7969C90.3047 27.7305 90.4189 26.7402 90.4189 25.8262C90.4189 20.6084 86.5723 17.4473 80.0977 17.4473C73.2422 17.4473 68.4053 20.9512 67.1865 26.5879H64.1396C65.5107 19.4658 71.7949 14.7432 80.3262 14.7432C88.21 14.7432 93.3896 19.0469 93.3896 25.5215C93.3896 26.5498 93.2754 27.7305 93.0088 28.9111L87.4863 55H84.5918L86.1152 47.8779H85.9629C83.1445 52.5625 77.6221 55.6094 71.6807 55.6094ZM118.184 14.7432C126.791 14.7432 132.504 20.2275 133.151 27.6162C133.151 27.6543 133.151 27.6543 133.151 27.6924H130.257C129.571 21.6748 124.887 17.4473 118.146 17.4473C108.472 17.4473 101.045 26.6641 101.045 38.7754C101.045 47.3447 106.225 52.9434 113.88 52.9434C120.05 52.9434 125.115 49.5156 127.324 44.1836H130.295C127.781 51.1533 121.535 55.6475 113.842 55.6475C104.13 55.6475 98.0742 48.792 98.0742 38.8516C98.0742 25.2168 106.644 14.7432 118.184 14.7432ZM137.227 55H134.256L145.948 0.0419922H148.919L141.416 35.2715H141.568L167.695 15.3906H171.847L149.795 32.3008L164.077 55H160.688L147.396 33.9766L140.578 39.1562L137.227 55ZM178.093 0.00390625H180.911C183.691 5.83105 184.872 15.2383 184.872 24.0742C184.872 40.7178 177.826 56.1807 167.391 66.3877H163.963C175.008 55.7236 181.939 40.0322 181.939 24.1885C181.939 14.9336 180.645 5.48828 178.093 0.00390625Z" fill="white"/>
</svg>
