<svg width="318" height="72" viewBox="0 0 318 72" fill="none" xmlns="http://www.w3.org/2000/svg">
<path d="M24.6158 72H0.86582V0.749994H48.3658C52.4192 0.749994 55.9342 1.415 58.9108 2.745C61.8875 4.01166 64.3575 5.72166 66.3208 7.875C68.2842 10.0283 69.7408 12.4983 70.6908 15.285C71.6408 18.0083 72.1158 20.795 72.1158 23.645C72.1158 26.495 71.6408 29.345 70.6908 32.195C69.7408 35.045 68.2842 37.61 66.3208 39.89C64.3575 42.1067 61.8875 43.9117 58.9108 45.305C55.9342 46.6983 52.4192 47.395 48.3658 47.395H24.6158V72ZM24.6158 25.545H47.8908V22.6H24.6158V25.545ZM148.427 72H119.167L99.6918 45.02V72H74.9918V0.749994H123.727C127.78 0.749994 131.358 1.415 134.462 2.745C137.565 4.01166 140.13 5.68999 142.157 7.77999C144.247 9.87 145.798 12.2767 146.812 15C147.888 17.7233 148.427 20.4783 148.427 23.265C148.427 25.8617 147.983 28.4267 147.097 30.96C146.273 33.43 145.007 35.6783 143.297 37.705C141.65 39.6683 139.56 41.3467 137.027 42.74C134.493 44.1333 131.58 45.0517 128.287 45.495L148.427 72ZM98.7418 23.265V26.4H122.967V23.265H98.7418ZM175.488 72H150.788V0.749994H175.488V72ZM246.719 72H196.464C190.891 72 186.457 70.5433 183.164 67.63C179.934 64.7167 178.319 61.1067 178.319 56.8C178.319 54.14 179.047 51.385 180.504 48.535C182.024 45.685 184.589 42.93 188.199 40.27L212.424 22.6H178.984V0.749994H231.329C236.459 0.749994 240.544 2.04833 243.584 4.645C246.687 7.17833 248.239 10.44 248.239 14.43C248.239 16.8367 247.511 19.4017 246.054 22.125C244.661 24.8483 242.032 27.5717 238.169 30.295L209.859 50.15H246.719V72ZM317.101 72H251.076V0.749994H317.101V22.6H276.251V25.83H317.101V46.92H276.251V50.15H317.101V72Z" fill="white"/>
</svg>
