<svg width="378" height="121" viewBox="0 0 378 121" fill="none" xmlns="http://www.w3.org/2000/svg">
<g filter="url(#filter0_ii_832_1952)">
<rect width="378" height="121" rx="22" fill="black"/>
<rect x="0.75" y="0.75" width="376.5" height="119.5" rx="21.25" stroke="url(#paint0_linear_832_1952)" stroke-opacity="0.3" stroke-width="1.5"/>
<path d="M345.938 110.593C337.307 106.217 329.337 108.617 324.205 116.29C333.914 121.212 341.517 119.496 345.938 110.593Z" fill="url(#paint1_linear_832_1952)"/>
<path d="M321.986 90.6506C314.46 97.0832 314.594 104.955 321.608 113.336C327.783 106.494 328.221 98.1006 321.986 90.6506Z" fill="url(#paint2_linear_832_1952)"/>
<path d="M360.356 90.463C350.98 88.131 343.733 92.2577 340.414 100.89C350.961 103.513 358 100.135 360.356 90.463Z" fill="url(#paint3_linear_832_1952)"/>
<path d="M331.528 77.8434C326.045 86.1213 328.32 93.652 337.347 99.7578C341.419 91.4616 339.552 83.2707 331.528 77.8434Z" fill="url(#paint4_linear_832_1952)"/>
<path d="M368.712 69.3052C359.164 70.76 354.021 77.3665 354.207 86.6254C364.948 84.9891 370.181 79.1551 368.712 69.3052Z" fill="url(#paint5_linear_832_1952)"/>
<path d="M336.282 68.0524C334.728 77.8885 339.908 83.768 350.634 85.4998C350.901 76.2432 345.816 69.5921 336.282 68.0524Z" fill="url(#paint6_linear_832_1952)"/>
<path d="M335.01 50.0944C335.01 60.0556 341.044 65.0361 351.907 65.0361C350.725 55.8524 344.665 50.0944 335.01 50.0944Z" fill="url(#paint7_linear_832_1952)"/>
<path d="M367.711 43.6908C358.702 47.2 355.097 54.7745 357.262 63.7729C367.397 59.825 371.256 52.9853 367.711 43.6908Z" fill="url(#paint8_linear_832_1952)"/>
<path d="M351.907 44.7893C347.483 36.6793 339.759 33.5616 330.773 37.1308C334.379 46.4009 341.798 48.8048 351.907 44.7893Z" fill="url(#paint9_linear_832_1952)"/>
<path d="M357.505 18.5557C350.305 25.058 349.583 33.4331 354.758 41.0768C362.857 33.7618 364.073 25.9831 357.505 18.5557Z" fill="url(#paint10_linear_832_1952)"/>
<path d="M341.346 29.1576C336.061 21.5918 328.043 19.3568 319.502 23.9088C324.101 32.7191 331.738 34.2784 341.346 29.1576Z" fill="url(#paint11_linear_832_1952)"/>
<path d="M343.318 3.13454C335.69 9.44223 335.697 17.3179 342.575 25.814C348.86 19.0741 349.432 10.6868 343.318 3.13454Z" fill="url(#paint12_linear_832_1952)"/>
<path d="M316 1C316 10.9612 322.035 15.9418 332.897 15.9418C331.715 6.75803 325.656 1.00005 316 1Z" fill="url(#paint13_linear_832_1952)"/>
<path d="M33.0624 110.593C41.6926 106.217 49.663 108.617 54.7947 116.29C45.0862 121.212 37.4826 119.496 33.0624 110.593Z" fill="url(#paint14_linear_832_1952)"/>
<path d="M57.0141 90.6506C64.5398 97.0832 64.406 104.955 57.3916 113.336C51.217 106.494 50.7794 98.1006 57.0141 90.6506Z" fill="url(#paint15_linear_832_1952)"/>
<path d="M18.6443 90.463C28.0201 88.131 35.2667 92.2577 38.5862 100.89C28.0385 103.513 21.0001 100.135 18.6443 90.463Z" fill="url(#paint16_linear_832_1952)"/>
<path d="M47.4722 77.8434C52.9546 86.1213 50.6803 93.652 41.6534 99.7578C37.5814 91.4616 39.4482 83.2707 47.4722 77.8434Z" fill="url(#paint17_linear_832_1952)"/>
<path d="M10.2884 69.3052C19.8356 70.76 24.979 77.3665 24.7931 86.6254C14.0519 84.9891 8.8192 79.1551 10.2884 69.3052Z" fill="url(#paint18_linear_832_1952)"/>
<path d="M42.7177 68.0524C44.2724 77.8885 39.0918 83.768 28.3657 85.4998C28.0994 76.2432 33.1839 69.5921 42.7177 68.0524Z" fill="url(#paint19_linear_832_1952)"/>
<path d="M43.9904 50.0944C43.9904 60.0556 37.9556 65.0361 27.093 65.0361C28.2749 55.8524 34.3348 50.0944 43.9904 50.0944Z" fill="url(#paint20_linear_832_1952)"/>
<path d="M11.2888 43.6908C20.298 47.2 23.9033 54.7745 21.7383 63.7729C11.6027 59.825 7.74408 52.9853 11.2888 43.6908Z" fill="url(#paint21_linear_832_1952)"/>
<path d="M27.093 44.7893C31.5172 36.6793 39.2409 33.5616 48.2271 37.1308C44.6214 46.4009 37.2025 48.8048 27.093 44.7893Z" fill="url(#paint22_linear_832_1952)"/>
<path d="M21.4949 18.5557C28.6945 25.058 29.4167 33.4331 24.2424 41.0768C16.1428 33.7618 14.9268 25.9831 21.4949 18.5557Z" fill="url(#paint23_linear_832_1952)"/>
<path d="M37.6539 29.1576C42.9386 21.5918 50.9571 19.3568 59.4976 23.9088C54.8994 32.7191 47.2619 34.2784 37.6539 29.1576Z" fill="url(#paint24_linear_832_1952)"/>
<path d="M35.682 3.13454C43.3104 9.44223 43.303 17.3179 36.4245 25.814C30.1395 19.0741 29.5677 10.6868 35.682 3.13454Z" fill="url(#paint25_linear_832_1952)"/>
<path d="M63 1C63 10.9612 56.9652 15.9418 46.1026 15.9418C47.2845 6.75803 53.3444 1.00005 63 1Z" fill="url(#paint26_linear_832_1952)"/>
</g>
<defs>
<filter id="filter0_ii_832_1952" x="-40" y="-40" width="458" height="201" filterUnits="userSpaceOnUse" color-interpolation-filters="sRGB">
<feFlood flood-opacity="0" result="BackgroundImageFix"/>
<feBlend mode="normal" in="SourceGraphic" in2="BackgroundImageFix" result="shape"/>
<feColorMatrix in="SourceAlpha" type="matrix" values="0 0 0 0 0 0 0 0 0 0 0 0 0 0 0 0 0 0 127 0" result="hardAlpha"/>
<feOffset dy="9"/>
<feGaussianBlur stdDeviation="4.2"/>
<feComposite in2="hardAlpha" operator="arithmetic" k2="-1" k3="1"/>
<feColorMatrix type="matrix" values="0 0 0 0 0.519231 0 0 0 0 0.519231 0 0 0 0 0.519231 0 0 0 0.26 0"/>
<feBlend mode="normal" in2="shape" result="effect1_innerShadow_832_1952"/>
<feColorMatrix in="SourceAlpha" type="matrix" values="0 0 0 0 0 0 0 0 0 0 0 0 0 0 0 0 0 0 127 0" result="hardAlpha"/>
<feMorphology radius="3" operator="dilate" in="SourceAlpha" result="effect2_innerShadow_832_1952"/>
<feOffset dy="5"/>
<feGaussianBlur stdDeviation="3.3"/>
<feComposite in2="hardAlpha" operator="arithmetic" k2="-1" k3="1"/>
<feColorMatrix type="matrix" values="0 0 0 0 1 0 0 0 0 1 0 0 0 0 1 0 0 0 0.39 0"/>
<feBlend mode="normal" in2="effect1_innerShadow_832_1952" result="effect2_innerShadow_832_1952"/>
</filter>
<linearGradient id="paint0_linear_832_1952" x1="189" y1="0" x2="189" y2="121" gradientUnits="userSpaceOnUse">
<stop stop-color="white" stop-opacity="0.5"/>
<stop offset="1" stop-color="#585858"/>
</linearGradient>
<linearGradient id="paint1_linear_832_1952" x1="342.5" y1="1" x2="318.036" y2="118.083" gradientUnits="userSpaceOnUse">
<stop stop-color="#838383"/>
<stop offset="0.5" stop-color="white"/>
<stop offset="1" stop-color="white" stop-opacity="0"/>
</linearGradient>
<linearGradient id="paint2_linear_832_1952" x1="342.5" y1="1" x2="318.036" y2="118.083" gradientUnits="userSpaceOnUse">
<stop stop-color="#838383"/>
<stop offset="0.5" stop-color="white"/>
<stop offset="1" stop-color="white" stop-opacity="0"/>
</linearGradient>
<linearGradient id="paint3_linear_832_1952" x1="342.5" y1="1" x2="318.036" y2="118.083" gradientUnits="userSpaceOnUse">
<stop stop-color="#838383"/>
<stop offset="0.5" stop-color="white"/>
<stop offset="1" stop-color="white" stop-opacity="0"/>
</linearGradient>
<linearGradient id="paint4_linear_832_1952" x1="342.5" y1="1" x2="318.036" y2="118.083" gradientUnits="userSpaceOnUse">
<stop stop-color="#838383"/>
<stop offset="0.5" stop-color="white"/>
<stop offset="1" stop-color="white" stop-opacity="0"/>
</linearGradient>
<linearGradient id="paint5_linear_832_1952" x1="342.5" y1="1" x2="318.036" y2="118.083" gradientUnits="userSpaceOnUse">
<stop stop-color="#838383"/>
<stop offset="0.5" stop-color="white"/>
<stop offset="1" stop-color="white" stop-opacity="0"/>
</linearGradient>
<linearGradient id="paint6_linear_832_1952" x1="342.5" y1="1" x2="318.036" y2="118.083" gradientUnits="userSpaceOnUse">
<stop stop-color="#838383"/>
<stop offset="0.5" stop-color="white"/>
<stop offset="1" stop-color="white" stop-opacity="0"/>
</linearGradient>
<linearGradient id="paint7_linear_832_1952" x1="342.5" y1="1" x2="318.036" y2="118.083" gradientUnits="userSpaceOnUse">
<stop stop-color="#838383"/>
<stop offset="0.5" stop-color="white"/>
<stop offset="1" stop-color="white" stop-opacity="0"/>
</linearGradient>
<linearGradient id="paint8_linear_832_1952" x1="342.5" y1="1" x2="318.036" y2="118.083" gradientUnits="userSpaceOnUse">
<stop stop-color="#838383"/>
<stop offset="0.5" stop-color="white"/>
<stop offset="1" stop-color="white" stop-opacity="0"/>
</linearGradient>
<linearGradient id="paint9_linear_832_1952" x1="342.5" y1="1" x2="318.036" y2="118.083" gradientUnits="userSpaceOnUse">
<stop stop-color="#838383"/>
<stop offset="0.5" stop-color="white"/>
<stop offset="1" stop-color="white" stop-opacity="0"/>
</linearGradient>
<linearGradient id="paint10_linear_832_1952" x1="342.5" y1="1" x2="318.036" y2="118.083" gradientUnits="userSpaceOnUse">
<stop stop-color="#838383"/>
<stop offset="0.5" stop-color="white"/>
<stop offset="1" stop-color="white" stop-opacity="0"/>
</linearGradient>
<linearGradient id="paint11_linear_832_1952" x1="342.5" y1="1" x2="318.036" y2="118.083" gradientUnits="userSpaceOnUse">
<stop stop-color="#838383"/>
<stop offset="0.5" stop-color="white"/>
<stop offset="1" stop-color="white" stop-opacity="0"/>
</linearGradient>
<linearGradient id="paint12_linear_832_1952" x1="342.5" y1="1" x2="318.036" y2="118.083" gradientUnits="userSpaceOnUse">
<stop stop-color="#838383"/>
<stop offset="0.5" stop-color="white"/>
<stop offset="1" stop-color="white" stop-opacity="0"/>
</linearGradient>
<linearGradient id="paint13_linear_832_1952" x1="342.5" y1="1" x2="318.036" y2="118.083" gradientUnits="userSpaceOnUse">
<stop stop-color="#838383"/>
<stop offset="0.5" stop-color="white"/>
<stop offset="1" stop-color="white" stop-opacity="0"/>
</linearGradient>
<linearGradient id="paint14_linear_832_1952" x1="36.5" y1="1" x2="60.9636" y2="118.083" gradientUnits="userSpaceOnUse">
<stop stop-color="#838383"/>
<stop offset="0.5" stop-color="white"/>
<stop offset="1" stop-color="white" stop-opacity="0"/>
</linearGradient>
<linearGradient id="paint15_linear_832_1952" x1="36.5" y1="1" x2="60.9636" y2="118.083" gradientUnits="userSpaceOnUse">
<stop stop-color="#838383"/>
<stop offset="0.5" stop-color="white"/>
<stop offset="1" stop-color="white" stop-opacity="0"/>
</linearGradient>
<linearGradient id="paint16_linear_832_1952" x1="36.5" y1="1" x2="60.9636" y2="118.083" gradientUnits="userSpaceOnUse">
<stop stop-color="#838383"/>
<stop offset="0.5" stop-color="white"/>
<stop offset="1" stop-color="white" stop-opacity="0"/>
</linearGradient>
<linearGradient id="paint17_linear_832_1952" x1="36.5" y1="1" x2="60.9636" y2="118.083" gradientUnits="userSpaceOnUse">
<stop stop-color="#838383"/>
<stop offset="0.5" stop-color="white"/>
<stop offset="1" stop-color="white" stop-opacity="0"/>
</linearGradient>
<linearGradient id="paint18_linear_832_1952" x1="36.5" y1="1" x2="60.9636" y2="118.083" gradientUnits="userSpaceOnUse">
<stop stop-color="#838383"/>
<stop offset="0.5" stop-color="white"/>
<stop offset="1" stop-color="white" stop-opacity="0"/>
</linearGradient>
<linearGradient id="paint19_linear_832_1952" x1="36.5" y1="1" x2="60.9636" y2="118.083" gradientUnits="userSpaceOnUse">
<stop stop-color="#838383"/>
<stop offset="0.5" stop-color="white"/>
<stop offset="1" stop-color="white" stop-opacity="0"/>
</linearGradient>
<linearGradient id="paint20_linear_832_1952" x1="36.5" y1="1" x2="60.9636" y2="118.083" gradientUnits="userSpaceOnUse">
<stop stop-color="#838383"/>
<stop offset="0.5" stop-color="white"/>
<stop offset="1" stop-color="white" stop-opacity="0"/>
</linearGradient>
<linearGradient id="paint21_linear_832_1952" x1="36.5" y1="1" x2="60.9636" y2="118.083" gradientUnits="userSpaceOnUse">
<stop stop-color="#838383"/>
<stop offset="0.5" stop-color="white"/>
<stop offset="1" stop-color="white" stop-opacity="0"/>
</linearGradient>
<linearGradient id="paint22_linear_832_1952" x1="36.5" y1="1" x2="60.9636" y2="118.083" gradientUnits="userSpaceOnUse">
<stop stop-color="#838383"/>
<stop offset="0.5" stop-color="white"/>
<stop offset="1" stop-color="white" stop-opacity="0"/>
</linearGradient>
<linearGradient id="paint23_linear_832_1952" x1="36.5" y1="1" x2="60.9636" y2="118.083" gradientUnits="userSpaceOnUse">
<stop stop-color="#838383"/>
<stop offset="0.5" stop-color="white"/>
<stop offset="1" stop-color="white" stop-opacity="0"/>
</linearGradient>
<linearGradient id="paint24_linear_832_1952" x1="36.5" y1="1" x2="60.9636" y2="118.083" gradientUnits="userSpaceOnUse">
<stop stop-color="#838383"/>
<stop offset="0.5" stop-color="white"/>
<stop offset="1" stop-color="white" stop-opacity="0"/>
</linearGradient>
<linearGradient id="paint25_linear_832_1952" x1="36.5" y1="1" x2="60.9636" y2="118.083" gradientUnits="userSpaceOnUse">
<stop stop-color="#838383"/>
<stop offset="0.5" stop-color="white"/>
<stop offset="1" stop-color="white" stop-opacity="0"/>
</linearGradient>
<linearGradient id="paint26_linear_832_1952" x1="36.5" y1="1" x2="60.9636" y2="118.083" gradientUnits="userSpaceOnUse">
<stop stop-color="#838383"/>
<stop offset="0.5" stop-color="white"/>
<stop offset="1" stop-color="white" stop-opacity="0"/>
</linearGradient>
</defs>
</svg>
